<svg width="1383" height="2789" viewBox="0 0 1383 2789" fill="none" xmlns="http://www.w3.org/2000/svg">
<path d="M350 24H1033V102C1033 146.183 997.183 182 953 182H430C385.817 182 350 146.183 350 102V24Z" fill="white"/>
<path d="M1021.39 22.5686H1274.39L1339.39 90.0686L1374.89 179.569L1366.89 2665.5L1270.39 2764L691.5 2779.5L118.395 2768.5L53 2698L6.5 2619L16.5 166.569L57 74.5L166.5 10.5L371 21.5L359 87.5L351 105L348.5 96L337.5 87.5L178 89L160.5 92L141.5 100L116.5 117L99.5 140L88 176V1843V2608L91.5 2626L98 2642L105 2655L113.5 2666.5L125 2677.5L136 2685.5L148.395 2692.5L165 2698L183 2700.5H1200.5L1220.39 2697L1235.5 2691.5L1249.39 2684.5L1260 2676L1270.39 2666.5L1277 2657.5L1282.39 2648.57L1288.89 2635.5L1294.39 2620.07L1296.39 2610.57V200.069L1294.89 166.569L1283.39 136.069L1266.89 115.569L1243.89 98.5686L1227.39 91.5686L1208.89 86.5686H1044.89L1037.39 94.0686L1029.89 103.069L1021.39 22.5686Z" fill="white"/>
<path d="M1359.14 188.831V2599.95C1359.14 2608.43 1358.5 2616.76 1357.28 2624.93C1356.94 2626.94 1356.6 2628.98 1356.22 2630.95C1354.29 2641.1 1351.42 2650.91 1347.71 2660.29C1346.99 2662.23 1346.19 2664.16 1345.36 2666.05C1340.14 2677.9 1333.55 2689.07 1325.83 2699.33C1325.07 2700.28 1324.31 2701.3 1323.56 2702.24C1318.22 2709.06 1312.28 2715.38 1305.95 2721.29C1303.38 2723.68 1300.73 2725.95 1298 2728.14C1297.06 2728.98 1296.07 2729.73 1295.09 2730.45C1292.17 2732.72 1289.18 2734.88 1286.12 2736.96C1285.93 2737.12 1285.74 2737.27 1285.55 2737.38C1283.66 2738.59 1281.77 2739.8 1279.87 2740.98C1277.75 2742.26 1275.59 2743.51 1273.44 2744.72C1271.24 2745.9 1269.04 2747.07 1266.81 2748.17C1265.71 2748.7 1264.58 2749.27 1263.48 2749.76C1262.34 2750.32 1261.21 2750.85 1260.07 2751.31C1256.63 2752.82 1253.14 2754.19 1249.58 2755.47C1247.24 2756.35 1244.85 2757.14 1242.46 2757.86C1241.25 2758.24 1240.04 2758.62 1238.83 2758.96C1235.16 2759.94 1231.45 2760.89 1227.7 2761.65C1226.49 2761.91 1225.24 2762.18 1223.95 2762.4C1222.66 2762.63 1221.42 2762.86 1220.17 2763.05C1217.63 2763.47 1215.05 2763.84 1212.48 2764.11C1210.67 2764.37 1208.85 2764.49 1207.03 2764.64C1205.52 2764.75 1204 2764.83 1202.49 2764.9C1199.65 2765.05 1196.85 2765.13 1193.97 2765.13H188.887C185.972 2765.13 183.134 2765.05 180.293 2764.9C178.779 2764.83 177.265 2764.75 175.751 2764.64C172.798 2764.41 169.882 2764.14 166.929 2763.81C168.066 2763.92 169.162 2764 170.3 2764.11C87.9204 2754.83 23.6777 2684.75 23.6777 2599.94V188.831C23.6777 100.651 93.1443 28.372 180.293 23.8672H180.408C183.209 23.7143 186.013 23.6398 188.887 23.6398H1193.97C1196.85 23.6398 1199.61 23.7143 1202.45 23.8672H1202.48C1204 23.9418 1205.51 24.0201 1207.03 24.132C1208.47 24.2439 1209.98 24.3968 1211.46 24.5087C1294.33 33.2946 1359.14 103.642 1359.14 188.831Z" stroke="#1A1A1A" stroke-width="2" stroke-miterlimit="10"/>
<path d="M1193.97 1H188.851C85.1206 1 1 85.0889 1 188.831V2599.95C1 2703.69 85.1206 2787.78 188.851 2787.78H1193.97C1297.7 2787.78 1381.82 2703.69 1381.82 2599.95V188.831C1381.82 85.0889 1297.7 1 1193.97 1ZM1305.95 2721.29C1303.37 2723.68 1300.73 2725.95 1298 2728.15C1297.05 2728.98 1296.07 2729.74 1295.09 2730.46C1292.17 2732.73 1289.18 2734.89 1286.11 2736.97C1285.92 2737.12 1285.73 2737.27 1285.55 2737.38C1283.65 2738.6 1281.76 2739.81 1279.87 2740.98C1277.75 2742.27 1275.59 2743.51 1273.43 2744.73C1271.24 2745.9 1269.04 2747.08 1266.81 2748.17C1265.71 2748.7 1264.57 2749.27 1263.48 2749.76C1262.34 2750.33 1261.21 2750.86 1260.07 2751.31C1256.62 2752.83 1253.14 2754.19 1249.58 2755.48C1247.23 2756.35 1244.85 2757.15 1242.46 2757.86C1241.25 2758.25 1240.04 2758.62 1238.83 2758.96C1235.15 2759.95 1231.44 2760.89 1227.7 2761.65C1226.48 2761.91 1225.23 2762.18 1223.95 2762.41C1222.66 2762.63 1221.41 2762.86 1220.16 2763.05C1217.63 2763.47 1215.05 2763.85 1212.48 2764.11C1210.66 2764.38 1208.84 2764.49 1207.03 2764.64C1205.51 2764.75 1204 2764.83 1202.49 2764.91C1199.65 2765.06 1196.84 2765.13 1193.97 2765.13H188.888C185.972 2765.13 183.135 2765.06 180.293 2764.91C178.779 2764.83 177.266 2764.75 175.752 2764.64C172.798 2764.41 169.883 2764.15 166.929 2763.81C168.067 2763.92 169.163 2764 170.3 2764.11C87.9209 2754.84 23.6783 2684.75 23.6783 2599.94V188.831C23.6783 100.651 93.1449 28.372 180.293 23.8672H180.409C183.209 23.7143 186.013 23.6398 188.888 23.6398H1193.97C1196.85 23.6398 1199.61 23.7143 1202.45 23.8672H1202.49C1204 23.9418 1205.51 24.0202 1207.03 24.132C1208.47 24.2439 1209.98 24.3968 1211.46 24.5087C1294.33 33.2946 1359.14 103.642 1359.14 188.831V2599.95C1359.14 2608.43 1358.5 2616.76 1357.28 2624.93C1356.95 2626.94 1356.6 2628.98 1356.23 2630.95C1354.29 2641.1 1351.42 2650.91 1347.71 2660.29C1346.99 2662.23 1346.2 2664.16 1345.36 2666.05C1340.14 2677.9 1333.55 2689.07 1325.83 2699.33C1325.07 2700.28 1324.31 2701.3 1323.56 2702.24C1318.21 2709.06 1312.27 2715.39 1305.95 2721.29Z" fill="white" stroke="#1A1A1A" stroke-width="2" stroke-miterlimit="10"/>
<path d="M760.784 115.851H613.592C609.945 115.851 606.988 112.894 606.988 109.246V105.599C606.988 101.952 609.945 98.995 613.592 98.995H760.784C764.431 98.995 767.388 101.952 767.388 105.599V109.246C767.388 112.894 764.431 115.851 760.784 115.851Z" fill="white" stroke="#1A1A1A" stroke-width="2" stroke-miterlimit="10"/>
<path d="M1200.63 88.393H1199.73L1198.37 88.255C1196.76 88.1842 1195.3 88.1842 1193.94 88.1842H1048.92C1040.62 88.6018 1033.93 95.0197 1033.09 103.213C1033.06 103.772 1033.02 104.328 1033.02 104.921V105.129C1031.03 147.638 995.953 181.466 952.994 181.466H705.423H677.387H429.816C386.858 181.466 351.781 147.638 349.79 105.129V104.921C349.79 104.328 349.757 103.768 349.719 103.213C348.884 95.016 342.187 88.6018 333.891 88.1842H188.868C187.507 88.1842 186.046 88.1842 184.439 88.255L183.078 88.393H182.172C129.38 91.8462 88.166 135.783 88.166 188.861V2599.95C88.166 2652.12 128.891 2696.23 180.848 2700.31C181.37 2700.34 181.791 2700.38 182.209 2700.41H182.559L182.839 2700.45H183.432L183.641 2700.48C185.386 2700.55 187.127 2700.62 188.872 2700.62H677.387H705.423H1193.94C1195.68 2700.62 1197.42 2700.55 1199.17 2700.48L1199.38 2700.45H1199.97L1200.25 2700.41H1200.6C1201.02 2700.38 1201.44 2700.34 1201.96 2700.31C1253.92 2696.23 1294.64 2652.11 1294.64 2599.95V188.864C1294.64 135.787 1253.43 91.8462 1200.63 88.393Z" stroke="#1A1A1A" stroke-width="2" stroke-miterlimit="10"/>
</svg>
