<svg width="603" height="426" viewBox="0 0 603 426" fill="none" xmlns="http://www.w3.org/2000/svg">
<rect x="108.387" y="2.45923" width="300.846" height="267.237" rx="50" fill="#40A6FF" fill-opacity="0.5"/>
<rect x="1" y="85.2534" width="297.567" height="272.975" rx="50" fill="#9BA5F7" fill-opacity="0.5"/>
<path d="M418.538 135.737C418.538 130.813 419.294 120.495 421.006 116.109C421.728 114.259 423.096 113.613 424.247 113.98C430.497 115.97 430.356 126.164 433.225 131.14C434.462 133.285 435.704 135.726 437.988 137.444C439.02 138.219 440.273 138.028 441.424 137.272C446.915 133.666 446.022 122.82 445.833 114.604C445.756 111.286 445.632 126.141 455.715 159.276C462.862 182.76 400.035 199.989 441.619 151.787C450.496 141.496 454.813 127.545 465.466 118.766C468.165 116.542 472.337 116.27 475.017 116.27C476.116 116.27 471.226 117.403 469.32 119.688C465.91 123.774 466.634 129.611 467.768 132.474C468.318 133.863 471.169 133.447 472.715 132.88C474.261 132.313 475.017 131.18 475.406 128.517C475.795 125.855 475.795 121.698 475.229 119.556C474.662 117.415 473.528 117.415 472.944 117.982C472.36 118.549 472.36 119.682 474.25 120.266C476.139 120.85 479.918 120.85 482.054 120.284C484.987 119.505 485.712 116.281 487.424 114.375C488.246 113.46 489.514 113.224 490.098 115.107C491.896 120.904 491.06 126.565 492.2 128.471C492.756 129.403 494.095 129.622 495.246 129.628C496.397 129.634 497.53 129.256 498.492 127.927C500.83 124.7 500.989 117.839 500.989 112.107C500.989 109.384 504.035 121.583 510.694 131.311C513.562 134.569 515.486 136.871 517.198 138.967C518.155 139.929 519.288 140.684 520.456 141.463" stroke="#50A4EB" stroke-width="5" stroke-linecap="round"/>
<path d="M525.628 129.473C541.211 129.473 584.405 109.39 555.959 63.7395C549.522 53.409 514.661 33.1935 496.024 37.2655C469.455 43.0704 451.453 49.8978 446.124 51.3829C442.275 52.4555 436.363 55.0211 433.881 56.2026C431.398 57.3842 432.592 57.32 433.872 57.4307C439.164 57.8879 442.367 61.2586 443.535 62.6446C443.928 63.1114 442.529 63.6688 441.32 63.7393C435.693 64.0671 430.973 62.4878 428.571 61.5942C427.419 61.1655 426.734 60.072 427.149 59.0778C434.099 51.8391 442.677 40.2481 447.274 35.7525C448.316 34.7263 449.094 33.6075 449.895 32.4547" stroke="#50A4EB" stroke-width="5" stroke-linecap="round"/>
<path d="M349.392 294.063C349.392 298.609 350.147 308.538 353.005 314.653C354.568 318 357.396 320.39 359.681 322.297C361.645 323.936 364.267 323.837 366.174 323.081C368.538 322.144 367.714 314.721 367.714 308.606C367.714 305.043 373.417 317.332 380.093 323.052C381.675 324.408 383.334 324.593 384.49 324.032C385.647 323.47 386.611 316.936 387 312C387.389 307.064 381.238 303.774 380.093 294.063" stroke="#6C84B4" stroke-width="5" stroke-linecap="round"/>
<path d="M395.877 305.914C395.622 305.914 399.582 305.914 405.783 305.722C407.899 305.657 407.891 305.147 407.699 304.31C406.776 300.283 405.698 298.559 404.667 296.557C403.972 295.208 402.857 294.42 401.892 294.032C398.696 292.749 394.73 299.435 392.653 304.023C390.862 307.979 394.567 311.704 396.711 314.69C398.18 316.738 400.388 317.664 402.969 318.25C405.472 318.817 407.755 318.188 408.98 317.866C410.077 317.416 410.987 316.769 411.824 315.421C412.278 314.456 412.789 312.921 413.316 311.34" stroke="#6C84B4" stroke-width="5" stroke-linecap="round"/>
<path d="M450.52 289.25C448.73 288.862 443.304 289.118 440.132 290.471C436.437 292.046 435.15 296.861 434.311 299.316C433.052 303 434.112 308.356 435.015 310.815C435.711 312.712 438.111 313.401 441.399 314.308C444.207 315.082 447.404 313.541 454.818 309.228C456.581 307.991 457.604 306.968 458.195 306.249C458.786 305.53 458.914 305.147 459.046 304.364" stroke="#6C84B4" stroke-width="5" stroke-linecap="round"/>
<path d="M474.935 292.738C473.78 292.61 467.107 292.35 462.028 293.185C459.902 293.535 459.697 296.474 459.112 298.863C458.638 300.797 459.174 302.678 459.559 303.903C459.941 305.115 461.363 306.294 462.718 307.52C463.559 308.282 465.107 308.239 466.913 308.111C469.29 307.943 470.664 305.922 471.831 304.306C473.353 302.196 473.385 299.334 473.706 297.526C473.82 296.887 473.772 295.985 473.836 295.78C474.271 294.382 481.329 303.79 486.423 307.846C486.945 308.235 487.328 308.619 487.718 308.945C488.107 309.27 488.491 309.526 488.886 309.789" stroke="#6C84B4" stroke-width="5" stroke-linecap="round"/>
<path d="M489.662 290.8C489.662 295.025 490.173 306.139 490.373 308.947C490.473 310.364 489.662 297.094 490.497 289.843C490.587 289.062 491.204 288.615 491.657 288.287C492.522 287.662 493.789 287.7 495.014 287.764C497.707 287.905 500.373 291.048 502.249 294.079C504.516 299.578 505.031 301.644 505.227 303.581C505.291 304.101 505.419 304.612 505.551 305.527" stroke="#6C84B4" stroke-width="5" stroke-linecap="round"/>
<path d="M289.96 277.893C282.172 259.449 281.989 249.722 282.172 248.383C284.245 248.932 291.266 255.539 297.747 255.35C300.45 255.161 306.111 256.885 308.814 255.35" stroke="#6C84B4" stroke-width="5" stroke-linecap="round"/>
<path d="M284.632 253.301C286.899 256.336 325.758 294.501 330.156 299.476C333.786 304.063 336.843 307.498 338.744 309.783C339.889 310.934 341.401 312.067 344.103 313.235" stroke="#6C84B4" stroke-width="5" stroke-linecap="round"/>
<path d="M517.5 278.5C517.5 282.341 518.515 301.687 519.222 302.59C520.004 303.589 522.634 303.501 525.281 303.245C526.293 303.147 526.521 302.478 526.717 301.959C527.508 299.859 527.428 297.184 527.624 293.439C527.665 292.652 527.815 292.27 527.945 292.264C529.728 292.185 533.977 298.944 539.172 302.461C540.232 303.178 541.12 303.114 542.085 302.986C543.475 302.801 544.735 301.827 545.51 300.86C546.629 299.464 546.161 294.239 545.712 289.242C545.28 284.445 541.139 278.21 538.934 274.897" stroke="#6C84B4" stroke-width="5" stroke-linecap="round"/>
<path d="M560.888 289.937C560.632 289.937 558.71 289.937 555.869 290.129C554.804 290.201 554.563 290.705 554.431 291.797C553.712 297.762 555.586 301.424 557.392 303.302C559.079 305.055 562.043 304.276 563.595 303.827C564.454 303.578 565.275 302.474 566.114 301.313C567.23 299.77 567.212 296.417 567.348 290.025C567.22 288.779 566.964 288.395 566.193 288.197C565.422 288 564.143 288 562.05 288.387" stroke="#6C84B4" stroke-width="5" stroke-linecap="round"/>
<path d="M574.064 287.612C574.064 292.999 574.32 301.556 575.031 303.046C577.431 308.073 575.223 287.484 576.316 287.29C578.048 287.224 579.486 287.097 580.579 286.903C581.288 286.837 582.311 286.837 583.365 286.837" stroke="#6C84B4" stroke-width="5" stroke-linecap="round"/>
<path d="M585.69 272.498C585.69 273.397 585.946 275.587 586.59 281.487C587.106 286.224 587.489 294.549 587.688 299.023C587.939 304.654 587.7 302.214 587.437 303.846C586.727 308.239 588.008 300.292 591.166 294.675C592.892 291.606 594.6 289.813 595.053 289.23C595.946 288.082 592.286 291.483 591.571 292.384C590.512 293.719 597.744 301.762 600.249 303.846" stroke="#6C84B4" stroke-width="5" stroke-linecap="round"/>
<path d="M359.586 347.5C359.586 348.168 359.896 349.515 362.07 354.626C367.343 365.919 371.01 373.823 371.323 374.833C371.48 375.342 371.635 375.843 371.794 376.359" stroke="#6C84B4" stroke-width="5" stroke-linecap="round"/>
<path d="M356.769 369.777C358.783 368.268 365.352 364.228 368.031 362.271C370.376 361.008 372.729 359.484 373.665 359.064C374.137 358.811 374.602 358.476 375.081 358.132" stroke="#6C84B4" stroke-width="5" stroke-linecap="round"/>
<path d="M390.106 357.119C389.797 357.119 386.538 357.119 381.842 359.375C379.439 360.53 380.246 366.142 380.556 368.633C380.866 371.124 381.486 371.458 382.037 371.63C383.026 371.939 385.237 371.301 388.13 370.207C391.795 368.821 391.515 363.884 392.294 359.752C392.501 358.657 392.454 357.646 392.222 356.962C391.989 356.279 391.524 355.945 390.898 355.772C390.271 355.6 389.496 355.6 388.698 355.6" stroke="#6C84B4" stroke-width="5" stroke-linecap="round"/>
<path d="M409.358 355.6C409.048 355.6 407.804 355.6 406.083 355.935C403.805 356.377 404.663 360.147 404.895 361.917C405 362.716 405.592 363.185 406.297 363.527C407.848 364.279 409.663 364.375 411.147 364.544C412.477 364.697 413.579 363.874 414.438 363.117C416.207 361.559 415.932 357.312 415.309 354.679C415.05 353.583 413.279 353.575 412.337 353.659C410.704 353.804 415.922 355.935 418.425 358.876C421.822 362.87 422.186 365.717 422.972 367.828C423.963 370.487 424.224 373.645 424.228 376.266C424.237 381.293 412.504 381.757 409.914 382.853C409.363 383.108 408.898 383.276 408.426 383.529C407.954 383.782 407.489 384.116 406.071 384.46" stroke="#6C84B4" stroke-width="5" stroke-linecap="round"/>
<path d="M430.956 355.6C431.886 355.6 435.154 355.6 439.38 354.765C440.986 354.448 440.817 352.259 440.584 351.147C440.352 350.036 439.887 349.535 439.26 349.193C437.94 348.473 434.891 348.512 431.062 348.93C429.366 349.115 428.318 350.183 427.759 351.616C427.2 353.049 427.2 355.054 427.355 356.337C427.885 360.723 434.074 363.357 437.593 364.542C441.746 364.046 444.099 362.355 444.958 361.347C445.353 360.674 445.662 359.671 445.982 358.638" stroke="#6C84B4" stroke-width="5" stroke-linecap="round"/>
<path d="M448.329 334.842C448.019 334.842 448.014 335.677 449.256 340.034C452.358 349.738 454.588 357.109 454.978 359.13C455.213 360.147 455.522 361.15 456.311 362.689" stroke="#6C84B4" stroke-width="5" stroke-linecap="round"/>
<path d="M447.391 353.069C447.701 353.069 448.48 353.069 450.891 352.818C452.682 352.568 455.626 352.066 457.375 351.808C459.124 351.55 459.589 351.55 460.068 351.55" stroke="#6C84B4" stroke-width="5" stroke-linecap="round"/>
<path d="M457.72 332.816C457.72 333.151 457.875 333.991 459.427 337.343C466.565 352.76 469.459 358.8 469.459 359.479C469.459 361.501 468.679 355.104 468.752 351.985C468.8 349.911 470.393 348.684 471.407 348.178C473.474 347.146 475.553 349.687 477.824 352.046C478.84 353.393 479.939 355.418 480.955 357.694C481.352 358.633 481.507 359.135 481.667 360.157" stroke="#6C84B4" stroke-width="5" stroke-linecap="round"/>
<path d="M489.649 354.588C489.959 354.588 490.738 354.421 491.832 353.917C493.793 353.014 493.405 350.041 493.173 348.355C492.836 345.915 489.034 346.487 487.235 346.738C484.916 347.061 485.423 351.702 485.033 354.241C484.804 355.735 485.418 357.282 486.432 358.545C488.271 360.835 490.579 361.332 492.537 362.18C493.659 362.667 494.809 362.522 495.746 361.935C496.218 361.514 496.683 360.846 497.387 360C498.091 359.155 499.021 358.152 500.448 356.613" stroke="#6C84B4" stroke-width="5" stroke-linecap="round"/>
<path d="M500.449 345.981C500.449 347.322 500.759 350.021 501.308 352.049C501.847 354.037 503.029 361.62 504.435 363.147C504.659 363.389 504.515 357.13 504.517 356.621C504.528 354.235 503.895 350.892 503.813 345.074C503.795 343.791 504.045 343.125 504.435 342.697C504.825 342.269 505.445 342.102 506.461 342.016C507.478 341.93 508.872 341.93 510.779 341.424" stroke="#6C84B4" stroke-width="5" stroke-linecap="round"/>
<path d="M2.68799 411.126C6.69117 407.123 12.8863 400.315 15.5288 394.124C17.1314 390.37 16.6202 384.841 16.4669 380.657C16.4256 379.528 16.0071 380.457 16.0025 381.697C15.9802 387.653 18.775 393.145 22.1791 396.567C23.4858 397.881 25.899 395.652 27.752 394.111C32.3743 390.264 33.3295 382.37 34.876 376.184C35.5029 373.677 35.8094 372.451 35.9673 375.65C36.7382 399.005 39.2089 411.405 44.308 418.84C45.7106 420.405 46.9366 421.325 50.0574 423.201" stroke="#8A93CE" stroke-width="5" stroke-linecap="round"/>
<path d="M49.1288 399.052C49.7418 399.052 51.5901 399.052 54.3719 398.439C57.1488 397.827 58.1011 394.417 59.0299 392.411C59.5053 391.384 59.3457 390.098 58.8859 389.313C57.9969 387.795 54.7202 387.906 51.474 388.366C48.796 388.745 47.8935 391.612 47.2758 393.618C46.5714 395.906 46.3423 398.42 47.1086 401.044C48.1527 404.619 51.9059 405.86 53.9122 406.478C56.2 407.182 58.7141 407.411 61.4913 406.951C64.8814 405.572 67.6957 403.705 69.5487 402.159C70.4822 401.532 71.4017 401.225 73.2779 400.909" stroke="#8A93CE" stroke-width="5" stroke-linecap="round"/>
<path d="M74.2065 396.265C82.5101 396.265 96.1637 395.652 101.583 392.722C110.294 388.012 108.573 374.048 108.419 363.515C108.373 360.336 107.96 361.565 107.495 362.656C106.602 364.755 105.173 366.534 103.785 368.081C103.118 368.823 102.089 369.014 101.922 368.712C100.085 365.395 105.47 360.989 108.559 357.576C109.313 356.742 110.412 356.642 110.885 357.097C111.359 358.779 112.585 361.268 114.902 363.432C115.994 364.37 116.913 364.983 119.718 367.472" stroke="#8A93CE" stroke-width="5" stroke-linecap="round"/>
</svg>
