<svg width="797" height="533" viewBox="0 0 797 533" fill="none" xmlns="http://www.w3.org/2000/svg">
<path d="M754.5 228C819.138 172.324 776.5 155 675.617 169.977M686 178.5C680 175.5 675.233 173.996 675.092 170.577C674.951 167.158 683.687 161.099 686 156.5" stroke="#4AA4FD" stroke-width="5" stroke-linecap="round"/>
<path d="M348.567 282C364.5 259 361.067 263.668 371.5 280.5" stroke="#2894FE" stroke-width="5" stroke-linecap="round"/>
<path d="M362 268.5C362.193 273.612 344 308 364.021 399.742" stroke="#2894FE" stroke-width="5" stroke-linecap="round"/>
<path d="M160 393.302C168.304 393.302 181.957 392.689 187.377 389.759C196.087 385.049 194.366 371.085 194.213 360.552M183.293 364.509C184.048 363.675 194.213 356.037 194.213 356.037C195.853 355.437 201.476 362.345 203.793 364.509" stroke="#86C2FD" stroke-width="5" stroke-linecap="round"/>
<path d="M339.012 490.895C339.012 499.715 338.824 515.907 338.54 513.929C337.276 505.131 342.612 493.414 350.947 490.327" stroke="#2894FE" stroke-width="5" stroke-linecap="round"/>
<path d="M381.067 476.688C381.067 489.532 384.488 499.544 384.488 511.911C384.488 520.717 384.838 502.538 387.878 499.718C398.409 489.949 404.367 503.227 398.409 511.911C395.56 516.064 385.812 509.881 384.488 514.676" stroke="#2894FE" stroke-width="5" stroke-linecap="round"/>
<path d="M441.308 494.305C441.308 497.499 442.058 507.706 442.538 513.045C443.437 523.039 438.389 532.363 427.1 529.54" stroke="#2894FE" stroke-width="5" stroke-linecap="round"/>
<path d="M439.603 481.802L440.171 482.371" stroke="#2894FE" stroke-width="5" stroke-linecap="round"/>
<path d="M463.472 496.01C440.626 496.01 457 532.949 468.774 497.814C469.379 496.01 468.774 509.449 477 513.253" stroke="#2894FE" stroke-width="5" stroke-linecap="round"/>
<path d="M418.472 496.449C395.626 496.449 412 533.388 423.774 498.254C424.379 496.449 423.774 509.888 432 513.692" stroke="#2894FE" stroke-width="5" stroke-linecap="round"/>
<path d="M322 476.449L324 513.449" stroke="#2894FE" stroke-width="5" stroke-linecap="round"/>
<path d="M314 494.449L332 493.449" stroke="#2894FE" stroke-width="5" stroke-linecap="round"/>
<path d="M363.472 496.449C340.626 496.449 357 533.388 368.774 498.254C369.379 496.449 368.774 509.888 377 513.692" stroke="#2894FE" stroke-width="5" stroke-linecap="round"/>
<path d="M485.048 493.878C485.048 494.443 485.048 505.42 485.048 512.153C485.048 519.893 483.503 490.449 498 490.449" stroke="#2894FE" stroke-width="5" stroke-linecap="round"/>
<path d="M528.828 486.349C528.828 503.634 542.373 525.487 516.5 526.449C510.164 526.685 502.117 522.677 502.117 516.469" stroke="#2894FE" stroke-width="5" stroke-linecap="round"/>
<path d="M539.057 488.054C539.057 492.893 537.85 498.334 542.459 501.025C549.518 505.148 559.639 493.449 556.766 487.679C555.618 485.373 559.568 497.024 561 501.025" stroke="#2894FE" stroke-width="5" stroke-linecap="round"/>
<path d="M567 484.449C567 484.449 571.07 500.551 571.073 500.935C571.095 503.983 568.802 495.271 568.797 491.665C568.78 481.147 586.227 484.449 586.227 499.988" stroke="#2894FE" stroke-width="5" stroke-linecap="round"/>
<path d="M593.047 471.004L596 501.449" stroke="#2894FE" stroke-width="5" stroke-linecap="round"/>
<path d="M588.5 486.917H602.14" stroke="#2894FE" stroke-width="5" stroke-linecap="round"/>
<path d="M614.074 486.949C607.053 486.949 605.454 502.92 614.074 502.208C626.574 501.176 621.027 489.267 614.074 486.949Z" stroke="#2894FE" stroke-width="5" stroke-linecap="round"/>
<path d="M639.759 487.668C639.759 487.497 628.254 486.321 629.94 491.895C631.564 497.263 648.039 491.053 643.069 499.843C641.285 502.999 632.221 503.185 629 500.961" stroke="#2894FE" stroke-width="5" stroke-linecap="round"/>
<path d="M526.509 471.25C527.304 472.289 528.514 472.93 529.82 473.005C529.078 474.082 528.842 475.431 529.173 476.696C527.92 476.323 526.564 476.515 525.464 477.222C525.43 475.915 524.83 474.685 523.817 473.856C525.051 473.421 526.034 472.469 526.509 471.25Z" stroke="#2894FE" stroke-width="5"/>
<path d="M319.5 411.449C319.5 414.004 320.003 438.449 321.5 454.449C322.994 470.418 308.195 402.228 334.5 405.437C351 407.449 346.849 433.846 323.155 429.949" stroke="#2894FE" stroke-width="5" stroke-linecap="round"/>
<path d="M384 437.949C366 427.449 361.5 452.199 369 455.949C390 466.449 387.403 406.495 387.403 413.414C387.403 427.662 386.5 443.449 387 457.449" stroke="#2894FE" stroke-width="5" stroke-linecap="round"/>
<path d="M399 437.319C399 437.958 399 450.349 399 457.949C399 466.687 397.5 433.449 411.578 433.449" stroke="#2894FE" stroke-width="5" stroke-linecap="round"/>
<path d="M418.968 434.475V459.949" stroke="#2894FE" stroke-width="5" stroke-linecap="round"/>
<path d="M457 458.949C457 454.469 454.511 445.402 455 434.928C455.138 431.98 458.636 437.713 463 440.949C466.028 443.195 467.924 438.8 469 434.929C473.558 418.529 473 456.813 473 458.949" stroke="#2894FE" stroke-width="5" stroke-linecap="round"/>
<path d="M522.383 435.775C518.463 430.509 504.126 434.983 508.673 441.247C514.114 448.742 528.539 441.202 525.774 454.439C525.107 457.635 522.074 458.667 519.66 459.795C515.301 460.612 510.792 459.006 507.411 457.076C505.945 456.104 504.987 455.146 504 454.159" stroke="#2894FE" stroke-width="5" stroke-linecap="round"/>
<path d="M438.472 436.449C415.626 436.449 432 483.58 443.775 438.751C444.379 436.449 443.775 453.596 452 458.449" stroke="#2894FE" stroke-width="5" stroke-linecap="round"/>
<path d="M488.273 433.449C477.202 433.449 474.68 458.531 488.273 457.413C507.983 455.791 499.236 437.089 488.273 433.449Z" stroke="#2894FE" stroke-width="5" stroke-linecap="round"/>
<path d="M347.273 433.449C336.202 433.449 333.68 458.531 347.273 457.413C366.983 455.791 358.236 437.089 347.273 433.449Z" stroke="#2894FE" stroke-width="5" stroke-linecap="round"/>
<path d="M426.127 417.146C426.012 418.832 426.858 420.468 428.354 421.338L428.543 421.447L427.332 421.76C425.761 422.166 424.529 423.385 424.109 424.953L423.928 425.627C423.105 424.347 421.681 423.567 420.159 423.562L420.631 423.046C421.727 421.849 422.093 420.155 421.59 418.612L421.202 417.423L421.395 417.523C422.933 418.317 424.766 418.149 426.127 417.146Z" stroke="#2894FE" stroke-width="5"/>
<path d="M99.2695 383.522C99.2695 404.376 119 403.182 119 383.522C119 369.008 133 421.522 122.181 429.685C107.5 440.762 89 421.522 89 421.522" stroke="#86C2FD" stroke-width="5" stroke-linecap="round"/>
<path d="M131.687 386.035C125.564 394.666 138 414.022 146.674 398.153C154.142 384.491 139.5 375.022 131.687 386.035Z" stroke="#86C2FD" stroke-width="5" stroke-linecap="round"/>
<path d="M715.2 226.309C715.2 233.315 713.506 241.19 719.975 245.086C729.884 251.053 744.09 234.119 740.057 225.766C738.445 222.428 743.99 239.294 746 245.086" stroke="#4AA4FD" stroke-width="5" stroke-linecap="round"/>
<path d="M697.667 197L700.333 246.333" stroke="#4AA4FD" stroke-width="5" stroke-linecap="round"/>
<path d="M687 221L711 219.667" stroke="#4AA4FD" stroke-width="5" stroke-linecap="round"/>
<path d="M730.126 210.479C730.012 212.166 730.857 213.802 732.354 214.672L732.542 214.781L731.332 215.094C729.76 215.499 728.528 216.719 728.108 218.286L727.928 218.961C727.105 217.68 725.681 216.9 724.158 216.896L724.631 216.38C725.726 215.182 726.093 213.488 725.589 211.946L725.201 210.756L725.394 210.857C726.933 211.65 728.766 211.482 730.126 210.479Z" stroke="#4AA4FD" stroke-width="5"/>
<path opacity="0.7" d="M229.769 36.6302C239.71 22.3765 261.931 26.7863 265.675 43.7562L265.761 44.1625L286.207 145.952L386.105 174.238C403.222 179.084 405.968 202.19 390.463 210.912L299.972 261.814L303.943 365.563C304.623 383.34 283.495 393.09 270.409 381.039L194.035 310.708L96.5918 346.543C79.8952 352.683 64.0931 335.604 71.5102 319.434L114.798 225.064L50.6055 143.464C39.6063 129.482 50.9665 109.176 68.6369 111.233L171.765 123.24L229.535 36.973L229.769 36.6302Z" fill="#56ABFF" stroke="#56ABFF" stroke-width="30"/>
<path opacity="0.7" d="M490.878 36.9212C480.979 22.1398 458.156 26.6696 454.652 44.1106L434.937 142.253L338.62 169.524C321.503 174.37 318.759 197.476 334.264 206.198L421.51 255.276L417.682 355.305C417.002 373.082 438.129 382.833 451.215 370.783L524.852 302.971L618.802 337.523C635.499 343.664 651.302 326.583 643.885 310.413L602.149 219.426L664.04 140.751C675.04 126.769 663.678 106.462 646.008 108.519L546.578 120.096L490.878 36.9212Z" fill="#0080FF" stroke="#0080FF" stroke-width="30"/>
</svg>
