<svg width="725" height="434" viewBox="0 0 725 434" fill="none" xmlns="http://www.w3.org/2000/svg">
<rect x="116.387" y="0.458984" width="300.846" height="267.237" rx="50" fill="#40A6FF" fill-opacity="0.5"/>
<rect x="9" y="83.2534" width="297.567" height="272.975" rx="50" fill="#9BA5F7" fill-opacity="0.5"/>
<path d="M533.629 127.473C600.5 74.5 535.041 28.815 435.698 56.4997M454 61.7392C448 61.7391 435.149 60.4997 435.149 57.0775C435.149 53.6553 440.5 50.4999 443 45.9999" stroke="#50A4EB" stroke-width="5" stroke-linecap="round"/>
<path d="M315.038 301.5C315.038 288.5 315.039 285.958 315.038 276C315.038 272.5 322 281 334 281" stroke="#6C84B4" stroke-width="5" stroke-linecap="round"/>
<path d="M317.498 280.918C319.765 283.953 345.5 311.5 381.5 335.5" stroke="#6C84B4" stroke-width="5" stroke-linecap="round"/>
<path d="M82.2065 394.266C90.5101 394.266 104.164 393.652 109.583 390.722C118.294 386.012 116.573 372.048 116.419 361.516M105.5 365.472C106.254 364.639 116.419 357 116.419 357C118.06 356.4 123.683 363.308 126 365.472" stroke="#8A93CE" stroke-width="5" stroke-linecap="round"/>
<path d="M397.5 291C397.5 293.554 398.003 318 399.5 334C400.994 349.969 386.195 281.779 412.5 284.987C429 287 424.849 313.397 401.155 309.5" stroke="#6C84B4" stroke-width="5" stroke-linecap="round"/>
<path d="M462 317.5C444 307 439.5 331.75 447 335.5C468 346 465.403 286.046 465.403 292.965C465.403 307.212 464.5 323 465 337" stroke="#6C84B4" stroke-width="5" stroke-linecap="round"/>
<path d="M477 316.87C477 317.509 477 329.9 477 337.5C477 346.238 475.5 313 489.578 313" stroke="#6C84B4" stroke-width="5" stroke-linecap="round"/>
<path d="M563.048 373.428C563.048 373.994 563.048 384.971 563.048 391.703C563.048 399.444 561.503 370 576 370" stroke="#6C84B4" stroke-width="5" stroke-linecap="round"/>
<path d="M496.968 314.026V339.5" stroke="#6C84B4" stroke-width="5" stroke-linecap="round"/>
<path d="M535 338.5C535 334.02 532.511 324.953 533 314.479C533.138 311.531 536.636 317.264 541 320.5C544.028 322.746 545.924 318.351 547 314.479C551.558 298.08 551 336.363 551 338.5" stroke="#6C84B4" stroke-width="5" stroke-linecap="round"/>
<path d="M600.383 315.326C596.463 310.06 582.126 314.534 586.673 320.798C592.114 328.293 606.539 320.753 603.774 333.99C603.107 337.186 600.074 338.218 597.66 339.345C593.301 340.163 588.792 338.557 585.411 336.627C583.945 335.654 582.987 334.696 582 333.71" stroke="#6C84B4" stroke-width="5" stroke-linecap="round"/>
<path d="M417.012 370.446C417.012 379.266 416.824 395.457 416.54 393.48C415.276 384.682 420.612 372.965 428.947 369.878" stroke="#6C84B4" stroke-width="5" stroke-linecap="round"/>
<path d="M459.067 356.238C459.067 369.083 462.488 379.094 462.488 391.462C462.488 400.267 462.838 382.089 465.878 379.269C476.409 369.5 482.367 382.778 476.409 391.462C473.56 395.615 463.812 389.432 462.488 394.227" stroke="#6C84B4" stroke-width="5" stroke-linecap="round"/>
<path d="M519.308 373.856C519.308 377.05 520.058 387.257 520.538 392.596C521.437 402.59 516.389 411.913 505.1 409.091" stroke="#6C84B4" stroke-width="5" stroke-linecap="round"/>
<path d="M517.603 361.353L518.171 361.921" stroke="#6C84B4" stroke-width="5" stroke-linecap="round"/>
<path d="M541.472 375.561C518.626 375.561 535 412.5 546.774 377.365C547.379 375.561 546.774 389 555 392.803" stroke="#6C84B4" stroke-width="5" stroke-linecap="round"/>
<path d="M496.472 376C473.626 376 490 412.939 501.774 377.804C502.379 376 501.774 389.439 510 393.243" stroke="#6C84B4" stroke-width="5" stroke-linecap="round"/>
<path d="M516.472 316C493.626 316 510 363.131 521.775 318.302C522.379 316 521.775 333.147 530 338" stroke="#6C84B4" stroke-width="5" stroke-linecap="round"/>
<path d="M606.828 365.899C606.828 383.185 620.373 405.038 594.5 406C588.164 406.236 580.117 402.228 580.117 396.02" stroke="#6C84B4" stroke-width="5" stroke-linecap="round"/>
<path d="M617.057 367.605C617.057 372.444 615.85 377.885 620.459 380.576C627.518 384.699 637.639 373 634.766 367.229C633.618 364.923 637.568 376.575 639 380.576" stroke="#6C84B4" stroke-width="5" stroke-linecap="round"/>
<path d="M483.2 113.976C483.2 120.982 481.506 128.857 487.975 132.753C497.884 138.72 512.09 121.786 508.057 113.433C506.445 110.095 511.99 126.961 514 132.753" stroke="#50A4EB" stroke-width="5" stroke-linecap="round"/>
<path d="M645 364C645 364 649.07 380.102 649.073 380.485C649.095 383.534 646.802 374.822 646.797 371.216C646.78 360.698 664.227 364 664.227 379.539" stroke="#6C84B4" stroke-width="5" stroke-linecap="round"/>
<path d="M671.047 350.555L674 381" stroke="#6C84B4" stroke-width="5" stroke-linecap="round"/>
<path d="M666.5 366.468H680.14" stroke="#6C84B4" stroke-width="5" stroke-linecap="round"/>
<path d="M400 356L402 393" stroke="#6C84B4" stroke-width="5" stroke-linecap="round"/>
<path d="M392 374L410 373" stroke="#6C84B4" stroke-width="5" stroke-linecap="round"/>
<path d="M465.667 84.6667L468.333 134" stroke="#50A4EB" stroke-width="5" stroke-linecap="round"/>
<path d="M455 108.667L479 107.333" stroke="#50A4EB" stroke-width="5" stroke-linecap="round"/>
<path d="M692.074 366.5C685.053 366.5 683.454 382.471 692.074 381.759C704.574 380.727 699.027 368.817 692.074 366.5Z" stroke="#6C84B4" stroke-width="5" stroke-linecap="round"/>
<path d="M566.273 313C555.202 313 552.68 338.082 566.273 336.964C585.983 335.342 577.236 316.64 566.273 313Z" stroke="#6C84B4" stroke-width="5" stroke-linecap="round"/>
<path d="M425.273 313C414.202 313 411.68 338.082 425.273 336.964C444.983 335.342 436.236 316.64 425.273 313Z" stroke="#6C84B4" stroke-width="5" stroke-linecap="round"/>
<path d="M717.759 367.219C717.759 367.048 706.254 365.872 707.94 371.446C709.564 376.813 726.039 370.604 721.069 379.394C719.285 382.549 710.221 382.736 707 380.512" stroke="#6C84B4" stroke-width="5" stroke-linecap="round"/>
<path d="M441.472 376C418.626 376 435 412.939 446.774 377.804C447.379 376 446.774 389.439 455 393.243" stroke="#6C84B4" stroke-width="5" stroke-linecap="round"/>
<path d="M604.509 350.801C605.304 351.84 606.514 352.48 607.82 352.556C607.078 353.633 606.842 354.982 607.173 356.246C605.92 355.874 604.564 356.066 603.464 356.773C603.43 355.465 602.83 354.235 601.817 353.407C603.051 352.972 604.034 352.02 604.509 350.801Z" stroke="#6C84B4" stroke-width="5"/>
<path d="M504.127 296.697C504.012 298.383 504.858 300.019 506.354 300.889L506.543 300.998L505.332 301.311C503.761 301.716 502.529 302.936 502.109 304.503L501.928 305.178C501.105 303.898 499.681 303.118 498.159 303.113L498.631 302.597C499.727 301.4 500.093 299.706 499.59 298.163L499.202 296.974L499.395 297.074C500.933 297.867 502.766 297.7 504.127 296.697Z" stroke="#6C84B4" stroke-width="5"/>
<path d="M13.2695 381C13.2695 401.854 33 400.66 33 381C33 366.486 46.9999 419 36.1808 427.163C21.5 438.24 3 419 3 419" stroke="#8A93CE" stroke-width="5" stroke-linecap="round"/>
<path d="M45.6869 383.513C39.5637 392.144 52 411.5 60.6741 395.631C68.1419 381.969 53.5 372.5 45.6869 383.513Z" stroke="#8A93CE" stroke-width="5" stroke-linecap="round"/>
<path d="M497.126 94.1459C497.012 95.8323 497.857 97.4682 499.354 98.3385L499.542 98.4474L498.332 98.7604C496.76 99.1657 495.528 100.385 495.108 101.953L494.928 102.627C494.105 101.347 492.681 100.567 491.158 100.562L491.631 100.046C492.726 98.849 493.093 97.1549 492.589 95.6123L492.201 94.4228L492.394 94.5232C493.933 95.3167 495.766 95.149 497.126 94.1459Z" stroke="#50A4EB" stroke-width="5"/>
</svg>
