<svg width="689" height="416" viewBox="0 0 689 416" fill="none" xmlns="http://www.w3.org/2000/svg">
<rect x="119.387" y="0.458984" width="300.846" height="267.237" rx="50" fill="#40A6FF" fill-opacity="0.5"/>
<rect x="12" y="83.2534" width="297.567" height="272.975" rx="50" fill="#9BA5F7" fill-opacity="0.5"/>
<path d="M536.629 127.473C603.5 74.5 538.041 28.815 438.698 56.4997M457 61.7392C451 61.7391 438.149 60.4997 438.149 57.0775C438.149 53.6553 443.5 50.4999 446 45.9999" stroke="#50A4EB" stroke-width="5" stroke-linecap="round"/>
<path d="M318.038 301.5C318.038 288.5 318.039 285.958 318.038 276C318.038 272.5 325 281 337 281" stroke="#6C84B4" stroke-width="5" stroke-linecap="round"/>
<path d="M320.498 280.918C322.765 283.953 348.5 311.5 384.5 335.5" stroke="#6C84B4" stroke-width="5" stroke-linecap="round"/>
<path d="M85.2065 394.266C93.5101 394.266 107.164 393.652 112.583 390.722C121.294 386.012 119.573 372.048 119.419 361.516M108.5 365.472C109.254 364.639 119.419 357 119.419 357C121.06 356.4 126.683 363.308 129 365.472" stroke="#8A93CE" stroke-width="5" stroke-linecap="round"/>
<path d="M446.269 121.522C446.269 142.376 466 141.182 466 121.522C466 107.008 480 159.522 469.181 167.685C454.5 178.762 436 159.522 436 159.522" stroke="#50A4EB" stroke-width="5" stroke-linecap="round"/>
<path d="M478.687 124.035C472.564 132.666 485 152.023 493.674 136.154C501.142 122.492 486.5 113.022 478.687 124.035Z" stroke="#50A4EB" stroke-width="5" stroke-linecap="round"/>
<path d="M503.168 120.976C503.168 127.982 501.747 135.857 507.172 139.753C515.483 145.72 527.398 128.786 524.015 120.433C522.663 117.095 527.314 133.961 529 139.753" stroke="#50A4EB" stroke-width="5" stroke-linecap="round"/>
<path d="M627.507 288C618.545 288 616.503 308.902 627.507 307.97C643.462 306.618 636.381 291.033 627.507 288Z" stroke="#6C84B4" stroke-width="5" stroke-linecap="round"/>
<path d="M642.5 285C642.5 285 645.213 309.987 645 308C643.388 293 649.257 288.087 657.591 285" stroke="#6C84B4" stroke-width="5" stroke-linecap="round"/>
<path d="M686.5 305C675 297.5 665.326 280.801 668 305C669.113 315.075 665.017 269.826 665.017 269.826" stroke="#6C84B4" stroke-width="5" stroke-linecap="round"/>
<path d="M609.699 287.562C610.008 291.557 613.727 299.401 613.844 308.787C613.877 311.429 605.932 304.617 602.902 301.239C599.919 297.913 597.797 305.661 596.452 310.135C591.923 325.197 589.97 291.008 589.822 289.103" stroke="#6C84B4" stroke-width="5" stroke-linecap="round"/>
<path d="M670 292C674.5 290.5 678.5 285 678.5 285" stroke="#6C84B4" stroke-width="5" stroke-linecap="round"/>
<path d="M523.849 288C498.261 288 516.6 339.416 529.787 290.512C530.465 288 529.787 306.706 539 312" stroke="#6C84B4" stroke-width="5" stroke-linecap="round"/>
<path d="M541 288C541 288 545.657 310.571 545.66 311.109C545.686 315.382 543.062 303.17 543.056 298.116C543.037 283.371 563 288 563 309.782" stroke="#6C84B4" stroke-width="5" stroke-linecap="round"/>
<path d="M502.503 292.37C498.009 283.312 480.381 282.118 482.12 300.776C483.859 319.433 501.504 315.41 505 306.604" stroke="#6C84B4" stroke-width="5" stroke-linecap="round"/>
<path d="M6.19509 406C6.19509 399.781 2.34193 387.194 3.09841 372.654C3.31139 368.56 8.72828 376.519 15.4842 381.012C20.1717 384.129 23.1075 378.029 24.7736 372.654C31.8304 349.887 30.9666 403.034 30.9666 406" stroke="#8A93CE" stroke-width="5" stroke-linecap="round"/>
<path d="M42.3122 391.5C60.9999 389 66.0003 383.574 55.9997 378C35.6662 366.667 32.5001 417.5 66.0002 397.5" stroke="#8A93CE" stroke-width="5" stroke-linecap="round"/>
<path d="M421.038 273.35C424.223 314.438 439.999 338.001 409 300C403.29 293 392.501 378 386.048 276.062" stroke="#6C84B4" stroke-width="5" stroke-linecap="round"/>
<path d="M437.582 307.169C456.269 304.669 461.27 299.243 451.269 293.669C430.936 282.336 427.77 333.169 461.27 313.169" stroke="#6C84B4" stroke-width="5" stroke-linecap="round"/>
<path d="M580.359 357.311C580.359 357.311 583.594 382.236 583.339 380.254C581.415 365.291 587.179 360.256 595.447 356.996" stroke="#6C84B4" stroke-width="5" stroke-linecap="round"/>
<path d="M415.928 341.744L421.289 382.789" stroke="#6C84B4" stroke-width="5" stroke-linecap="round"/>
<path d="M407.334 357.927L428.33 357.488" stroke="#6C84B4" stroke-width="5" stroke-linecap="round"/>
<path d="M514.081 344.693L519.835 380.729" stroke="#6C84B4" stroke-width="5" stroke-linecap="round"/>
<path d="M509.375 358.795L516.873 358.638L524.371 358.481" stroke="#6C84B4" stroke-width="5" stroke-linecap="round"/>
<path d="M439.642 359.252C428.574 359.483 426.576 384.612 440.142 383.21C459.814 381.177 450.678 362.661 439.642 359.252Z" stroke="#6C84B4" stroke-width="5" stroke-linecap="round"/>
<path d="M471.65 360.569C442.557 352.752 463.153 406.771 472.535 363.384C475.905 347.802 482.22 398.92 473.473 408.273C461.604 420.964 452.276 402.537 452.276 402.537" stroke="#6C84B4" stroke-width="5" stroke-linecap="round"/>
<path d="M548.792 378.348C548.628 370.477 534.133 339.773 533.295 378.672C533.077 388.806 528.546 342.891 528.546 342.891" stroke="#6C84B4" stroke-width="5" stroke-linecap="round"/>
<path d="M487.038 372.744C503.258 370.183 507.51 365.271 498.701 360.501C480.792 350.802 478.98 396.023 507.768 377.644" stroke="#6C84B4" stroke-width="5" stroke-linecap="round"/>
<path d="M554.949 370.739C570.431 368.29 574.489 363.591 566.081 359.028C548.986 349.75 547.258 393.005 574.737 375.426" stroke="#6C84B4" stroke-width="5" stroke-linecap="round"/>
</svg>
