<svg width="797" height="549" viewBox="0 0 797 549" fill="none" xmlns="http://www.w3.org/2000/svg">
<path d="M664.269 222.522C664.269 243.376 684 242.182 684 222.522C684 208.008 698 260.522 687.181 268.685C672.5 279.762 654 260.522 654 260.522" stroke="#4AA4FD" stroke-width="5" stroke-linecap="round"/>
<path d="M696.687 225.035C690.564 233.666 703 253.023 711.674 237.154C719.142 223.492 704.5 214.022 696.687 225.035Z" stroke="#4AA4FD" stroke-width="5" stroke-linecap="round"/>
<path d="M721.168 221.976C721.168 228.982 719.747 236.857 725.172 240.753C733.483 246.72 745.398 229.786 742.015 221.433C740.663 218.095 745.314 234.961 747 240.753" stroke="#4AA4FD" stroke-width="5" stroke-linecap="round"/>
<path d="M97.1951 412C97.1951 405.781 93.3419 393.194 94.0984 378.654C94.3114 374.56 99.7283 382.519 106.484 387.012C111.172 390.129 114.108 384.029 115.774 378.654C122.83 355.887 121.967 409.034 121.967 412" stroke="#86C2FD" stroke-width="5" stroke-linecap="round"/>
<path d="M133.312 397.5C152 395 157 389.574 147 384C126.666 372.667 123.5 423.5 157 403.5" stroke="#86C2FD" stroke-width="5" stroke-linecap="round"/>
<path d="M555.507 421.241C546.545 421.241 544.503 442.143 555.507 441.211C571.462 439.859 564.381 424.274 555.507 421.241Z" stroke="#2894FE" stroke-width="5" stroke-linecap="round"/>
<path d="M570.5 418.241C570.5 418.241 573.213 443.228 573 441.241C571.388 426.241 577.257 421.328 585.591 418.241" stroke="#2894FE" stroke-width="5" stroke-linecap="round"/>
<path d="M614.5 438.241C603 430.741 593.326 414.042 596 438.241C597.113 448.316 593.017 403.067 593.017 403.067" stroke="#2894FE" stroke-width="5" stroke-linecap="round"/>
<path d="M537.699 420.803C538.008 424.798 541.727 432.642 541.844 442.028C541.877 444.67 533.932 437.858 530.902 434.48C527.919 431.154 525.797 438.902 524.452 443.376C519.923 458.437 517.97 424.249 517.822 422.344" stroke="#2894FE" stroke-width="5" stroke-linecap="round"/>
<path d="M598 425.241C602.5 423.741 606.5 418.241 606.5 418.241" stroke="#2894FE" stroke-width="5" stroke-linecap="round"/>
<path d="M451.849 421.241C426.261 421.241 444.6 472.657 457.787 423.753C458.465 421.241 457.787 439.947 467 445.241" stroke="#2894FE" stroke-width="5" stroke-linecap="round"/>
<path d="M469 421.241C469 421.241 473.657 443.812 473.66 444.35C473.686 448.623 471.062 436.411 471.056 431.356C471.037 416.612 491 421.241 491 443.023" stroke="#2894FE" stroke-width="5" stroke-linecap="round"/>
<path d="M430.503 425.611C426.009 416.553 408.381 415.359 410.12 434.017C411.859 452.674 429.504 448.651 433 439.845" stroke="#2894FE" stroke-width="5" stroke-linecap="round"/>
<path d="M349.038 406.591C352.223 447.679 367.999 471.242 337 433.241C331.29 426.241 320.501 511.241 314.048 409.303" stroke="#2894FE" stroke-width="5" stroke-linecap="round"/>
<path d="M365.582 440.41C384.269 437.91 389.27 432.484 379.269 426.91C358.936 415.577 355.77 466.41 389.27 446.41" stroke="#2894FE" stroke-width="5" stroke-linecap="round"/>
<path d="M508.359 490.552C508.359 490.552 511.594 515.477 511.339 513.495C509.415 498.532 515.179 493.497 523.447 490.237" stroke="#2894FE" stroke-width="5" stroke-linecap="round"/>
<path d="M343.928 474.985L349.289 516.03" stroke="#2894FE" stroke-width="5" stroke-linecap="round"/>
<path d="M335.334 491.168L356.33 490.729" stroke="#2894FE" stroke-width="5" stroke-linecap="round"/>
<path d="M442.081 477.934L447.835 513.97" stroke="#2894FE" stroke-width="5" stroke-linecap="round"/>
<path d="M437.375 492.036L444.873 491.879L452.371 491.722" stroke="#2894FE" stroke-width="5" stroke-linecap="round"/>
<path d="M367.642 492.493C356.574 492.724 354.576 517.853 368.142 516.451C387.814 514.418 378.678 495.902 367.642 492.493Z" stroke="#2894FE" stroke-width="5" stroke-linecap="round"/>
<path d="M399.65 493.81C370.557 485.993 391.153 540.012 400.535 496.625C403.905 481.043 410.22 532.161 401.473 541.514C389.604 554.205 380.276 535.778 380.276 535.778" stroke="#2894FE" stroke-width="5" stroke-linecap="round"/>
<path d="M476.792 511.589C476.628 503.718 462.133 473.014 461.295 511.913C461.077 522.047 456.546 476.132 456.546 476.132" stroke="#2894FE" stroke-width="5" stroke-linecap="round"/>
<path d="M415.038 505.985C431.258 503.424 435.51 498.512 426.701 493.742C408.792 484.043 406.98 529.264 435.768 510.885" stroke="#2894FE" stroke-width="5" stroke-linecap="round"/>
<path d="M482.949 503.98C498.431 501.531 502.489 496.832 494.081 492.269C476.986 482.991 475.258 526.246 502.737 508.667" stroke="#2894FE" stroke-width="5" stroke-linecap="round"/>
<path opacity="0.7" d="M229.769 36.6302C239.71 22.3765 261.931 26.7863 265.675 43.7562L265.761 44.1625L286.207 145.952L386.105 174.238C403.222 179.084 405.968 202.19 390.463 210.912L299.972 261.814L303.943 365.563C304.623 383.34 283.495 393.09 270.409 381.039L194.035 310.708L96.5918 346.543C79.8952 352.683 64.0931 335.604 71.5102 319.434L114.798 225.064L50.6055 143.464C39.6063 129.482 50.9665 109.176 68.6369 111.233L171.765 123.24L229.535 36.973L229.769 36.6302Z" fill="#56ABFF" stroke="#56ABFF" stroke-width="30"/>
<path opacity="0.7" d="M490.878 36.9212C480.979 22.1398 458.156 26.6696 454.652 44.1106L434.937 142.253L338.62 169.524C321.503 174.37 318.759 197.476 334.264 206.198L421.51 255.276L417.682 355.305C417.002 373.082 438.129 382.833 451.215 370.783L524.852 302.971L618.802 337.523C635.499 343.664 651.302 326.583 643.885 310.413L602.149 219.426L664.04 140.751C675.04 126.769 663.678 106.462 646.008 108.519L546.578 120.096L490.878 36.9212Z" fill="#0080FF" stroke="#0080FF" stroke-width="30"/>
<path d="M754.5 227.947C819.138 172.27 776.5 154.946 675.617 169.923M686 178.447C680 175.446 675.233 173.943 675.092 170.523C674.951 167.104 683.687 161.045 686 156.447" stroke="#4AA4FD" stroke-width="5" stroke-linecap="round"/>
<path d="M348.567 281.946C364.5 258.946 361.067 263.614 371.5 280.446" stroke="#2894FE" stroke-width="5" stroke-linecap="round"/>
<path d="M362 268.446C362.193 273.558 344 307.946 364.021 399.688" stroke="#2894FE" stroke-width="5" stroke-linecap="round"/>
<path d="M160 393.249C168.304 393.249 181.957 392.636 187.377 389.705C196.087 384.996 194.366 371.031 194.213 360.499M183.293 364.455C184.048 363.622 194.213 355.983 194.213 355.983C195.853 355.383 201.476 362.291 203.793 364.456" stroke="#86C2FD" stroke-width="5" stroke-linecap="round"/>
</svg>
