<svg width="305" height="268" viewBox="0 0 305 268" fill="none" xmlns="http://www.w3.org/2000/svg">
<path d="M270.5 172.366C255.453 221.573 177.838 234.462 128.631 219.415C79.4233 204.368 15.9499 152.029 30.9968 102.822C46.0436 53.6144 133.913 26.1728 183.12 41.2197C232.327 56.2665 285.547 123.158 270.5 172.366Z" fill="white"/>
<path d="M251.543 149.259C236.496 198.467 185.692 199.373 135.902 164.067C74.1229 171.275 48.2984 129.585 63.3453 80.3782C78.3921 31.1709 147.495 30.3267 180.039 40.2782C212.583 50.2298 272.554 80.5483 251.543 149.259Z" fill="#FFC87D"/>
<path d="M116.4 191.857C116.816 192.045 117.278 192.218 117.721 192.366C117.746 192.374 117.772 192.383 117.798 192.391C117.819 192.399 117.842 192.405 117.864 192.413C120.179 193.273 122.713 193.902 125.345 193.425C127.992 193.001 130.38 190.925 131.421 188.439L129.51 187.991C129.499 188.178 129.494 188.363 129.493 188.545C129.271 192.935 133.009 196.698 136.832 197.451C137.33 197.571 137.833 197.663 138.337 197.702C137.869 197.514 137.423 197.288 136.99 197.047C133.596 195.216 131.363 192.061 131.493 188.551C131.493 188.4 131.497 188.246 131.503 188.089L129.592 187.641C128.16 192.077 122.675 193.888 117.864 192.413C117.841 192.406 117.82 192.398 117.798 192.391C117.772 192.383 117.746 192.374 117.721 192.366C117.278 192.218 116.816 192.045 116.4 191.857Z" fill="#4C4C4C"/>
<line x1="132.109" y1="178.122" x2="130.13" y2="188.526" stroke="#4C4C4C" stroke-width="2"/>
<path d="M137.812 150.118L146.03 151.867L146.526 170.27L136.041 171.156L126.247 165.483L137.812 150.118Z" fill="#EDB66B"/>
<path d="M126.727 165.183C124.933 162.273 130.039 167.835 136.421 169.648C142.787 171.457 149.32 168.864 146.532 170.371C140.184 173.803 135.38 181.89 132.406 180.503C129.432 179.117 130.311 170.997 126.727 165.183Z" fill="#FF7D9E"/>
<path d="M74.2189 29.5641C89.057 23.5211 105.57 42.5903 105.57 42.5903L87.0065 48.8177L63.8976 66.727C63.8976 66.727 51.3506 38.8775 74.2189 29.5641Z" fill="white"/>
<path d="M278.457 93.7799C268.92 80.9061 244.902 88.617 244.902 88.617L257.526 103.584L267.963 130.894C267.963 130.894 293.155 113.621 278.457 93.7799Z" fill="white"/>
<path d="M100.26 162.792C100.495 162.847 100.745 162.817 100.958 162.699C101.171 162.581 101.329 162.386 101.399 162.156C101.468 161.925 101.443 161.676 101.33 161.46C101.217 161.244 101.025 161.081 100.799 160.997C99.3734 160.447 97.8543 159.807 96.4079 159.167C84.2815 153.462 67.5804 145.235 69.3425 132.872C69.432 132.443 69.5496 132.006 69.6986 131.557L70.5989 128.851L67.8097 128.312C62.3515 127.544 60.365 120.444 60.063 113.929C59.7191 107.262 60.4904 100.336 61.6108 93.546C61.8734 91.9872 62.1778 90.3528 62.4958 88.859C62.5484 88.6235 62.5167 88.3737 62.3973 88.1613C62.278 87.9489 62.0824 87.7919 61.8514 87.7242C61.6204 87.6566 61.371 87.6831 61.156 87.7974C60.9408 87.9118 60.7792 88.105 60.6965 88.3316C60.1563 89.8448 59.6593 91.4376 59.2047 92.9932C57.2656 99.7561 55.8198 106.759 55.7461 114.036C55.75 117.676 56.0635 121.442 57.5456 125.152C58.9081 128.858 62.5166 132.519 66.8502 133.215L64.9612 129.97C64.7494 130.598 64.5786 131.225 64.4481 131.85C62.5268 140.978 69.4853 148.074 75.4145 152.138C81.6657 156.425 88.551 159.278 95.5428 161.479C97.0965 161.959 98.6867 162.415 100.26 162.792Z" fill="#4C4C4C"/>
<path d="M70.8524 118.843C70.9812 119.044 71.1763 119.199 71.4076 119.268C71.6389 119.338 71.8857 119.316 72.0965 119.207C72.3073 119.098 72.4674 118.909 72.5443 118.68C72.6213 118.451 72.6069 118.202 72.5174 117.981C72.2783 117.18 72.1369 116.037 72.0936 114.99C71.9464 107.547 74.2918 100.131 76.7946 92.9363L77.7101 90.3671L74.9537 89.7734C73.9595 89.5587 73.1703 89.2492 72.7359 88.9162C72.5367 88.7635 72.4577 88.6452 72.4229 88.565C72.3891 88.4862 72.3558 88.3648 72.3706 88.1223C74.5919 81.2946 84.1249 73.884 91.2945 67.4477C92.13 66.7295 93.0327 65.9691 93.8392 65.2935C94.0235 65.1422 94.1551 64.9304 94.1969 64.6926C94.2388 64.4548 94.1886 64.2122 94.0557 64.0156C93.9227 63.8189 93.7163 63.6819 93.48 63.6322C93.2437 63.5824 92.9981 63.6256 92.7891 63.7402C91.8308 64.2672 90.8115 64.8679 89.85 65.4456C81.4274 71.3029 71.7403 75.179 67.3811 87.7976C67.1444 89.5939 68.3007 91.9885 69.8061 92.9275C71.3179 93.9708 72.6104 94.2753 74.0187 94.5519L72.1778 91.389C69.8539 99.0078 68.1152 107.136 69.6462 115.314C69.9164 116.515 70.182 117.578 70.8524 118.843Z" fill="#4C4C4C"/>
<path d="M225.566 160.241C225.35 160.343 225.103 160.371 224.87 160.307C224.637 160.243 224.439 160.094 224.319 159.889C224.198 159.685 224.163 159.44 224.219 159.205C224.275 158.97 224.419 158.767 224.612 158.627C225.24 158.074 225.967 157.18 226.559 156.317C230.633 150.086 232.58 142.555 234.276 135.129L234.864 132.466L237.515 133.425C238.472 133.771 239.305 133.927 239.85 133.875C240.1 133.852 240.229 133.793 240.301 133.744C240.372 133.695 240.465 133.61 240.581 133.396C242.321 126.43 238.173 115.091 235.511 105.831C235.184 104.779 234.822 103.655 234.497 102.655C234.422 102.429 234.422 102.179 234.513 101.955C234.604 101.732 234.775 101.553 234.992 101.457C235.209 101.36 235.457 101.354 235.683 101.437C235.91 101.52 236.095 101.687 236.212 101.895C236.744 102.85 237.29 103.9 237.798 104.9C241.829 114.334 247.983 122.76 244.982 135.769C244.23 137.417 241.979 138.833 240.205 138.83C238.37 138.912 237.112 138.484 235.772 137.971L239.011 136.267C236.938 143.958 234.098 151.77 228.461 157.89C227.595 158.765 226.806 159.524 225.566 160.241Z" fill="#4C4C4C"/>
<path d="M254.808 139.677C254.844 139.438 254.793 139.191 254.657 138.988C254.522 138.785 254.314 138.643 254.078 138.594C253.841 138.544 253.594 138.59 253.388 138.721C253.182 138.853 253.036 139.059 252.973 139.292C252.512 140.926 251.959 142.704 251.409 144.371C249.088 151.333 246.375 158.23 242.787 164.425C239.317 170.422 234.08 176.637 228.372 175.494L226.301 175.141L225.605 177.146C225.24 178.194 224.769 179.137 224.176 180.008C215.139 190.771 195.762 187.324 180.774 184.807C179.037 184.464 177.264 184.087 175.594 183.679C175.36 183.619 175.109 183.645 174.893 183.759C174.677 183.874 174.515 184.066 174.442 184.296C174.369 184.526 174.39 184.777 174.5 184.995C174.61 185.213 174.8 185.379 175.026 185.466C176.714 186.098 178.44 186.666 180.172 187.201C195.191 190.902 214.432 197.691 228.306 182.825C229.163 181.57 229.83 180.209 230.321 178.759L227.554 180.41C237.684 181.692 243.155 172.789 246.527 166.468C249.997 159.597 252.174 152.327 253.791 145.02C254.171 143.265 254.534 141.433 254.808 139.677Z" fill="#4C4C4C"/>
<path d="M187.588 87.2529C187.745 87.4356 187.965 87.5591 188.206 87.5899C188.448 87.6208 188.691 87.5574 188.883 87.4124C189.075 87.2674 189.202 87.0513 189.239 86.8105C189.275 86.5696 189.216 86.3246 189.084 86.1231C188.407 85.1465 187.702 84.2978 186.938 83.4464C180.624 76.3589 170.791 71.646 160.831 72.7176L162.315 73.1791C161.8 72.7412 161.28 72.3363 160.734 71.9463C151.724 65.6308 140.337 66.1524 130.789 68.855C129.705 69.1717 128.644 69.5143 127.579 69.9324C127.356 70.0241 127.169 70.1932 127.064 70.4128C126.958 70.6322 126.941 70.8825 127.018 71.1106C127.095 71.3387 127.26 71.5279 127.477 71.6386C127.694 71.7495 127.945 71.7713 128.178 71.7092C129.156 71.468 130.247 71.2536 131.3 71.0756C140.756 69.5427 150.986 69.9209 158.409 75.2016C158.867 75.5288 159.304 75.8664 159.739 76.2302L160.39 76.7767L161.222 76.6917C169.844 75.7174 178.594 79.1338 185.334 85.0652C186.127 85.7626 186.923 86.5207 187.588 87.2529Z" fill="#4C4C4C"/>
<path d="M159.527 74.2307C159.415 74.7494 159.516 75.2855 159.817 75.7227C160.117 76.1598 160.592 76.4621 161.129 76.5615C161.666 76.661 162.218 76.5489 162.655 76.2484C163.092 75.948 163.379 75.4837 163.46 74.9593C163.542 74.4354 163.643 73.8634 163.744 73.3067C164.68 68.2972 165.875 63.291 167.57 58.553C167.688 58.2274 167.812 57.8963 167.936 57.5754C169.563 53.3906 172.572 49.5803 176.123 46.4551C176.549 46.0851 176.995 45.7157 177.423 45.3939C177.537 45.3105 177.615 45.1813 177.641 45.0385C177.667 44.8955 177.64 44.7507 177.563 44.6321C177.486 44.5134 177.365 44.4297 177.224 44.3955C177.083 44.3615 176.933 44.3798 176.81 44.4502C176.289 44.7592 175.806 45.0773 175.317 45.4126C171.298 48.2211 167.568 51.7378 165.266 56.4077C165.105 56.7401 164.945 57.0829 164.793 57.4192C162.617 62.3121 161.179 67.3792 159.926 72.4982C159.788 73.0753 159.656 73.636 159.527 74.2307Z" fill="#4C4C4C"/>
<path d="M121.712 49.3321C121.478 49.3922 121.27 49.5343 121.136 49.7374C121.001 49.9404 120.95 50.1862 120.995 50.4228C121.04 50.6594 121.177 50.8695 121.377 51.0089C121.577 51.1483 121.823 51.2041 122.063 51.1741C123.609 51.0099 125.259 50.934 126.876 50.9066C139.707 50.7556 152.876 53.6532 162.212 61.7209L162.931 62.3404L163.913 62.3103C165.541 62.2609 167.174 62.2872 168.807 62.3805C183.022 63.2857 196.953 68.6441 209.87 75.552C211.301 76.3327 212.749 77.154 214.084 77.9792C214.288 78.1088 214.534 78.1637 214.774 78.1232C215.015 78.0828 215.229 77.9518 215.371 77.7572C215.512 77.5626 215.572 77.3187 215.537 77.0776C215.502 76.8363 215.375 76.6188 215.189 76.4645C213.888 75.4076 212.545 74.4205 211.173 73.4551C198.862 64.9549 184.614 58.3976 169.092 57.3886C167.312 57.2869 165.521 57.2694 163.728 57.3474L165.428 57.9367C154.507 48.8022 139.827 46.7844 126.694 48.4446C125.016 48.6658 123.38 48.9353 121.712 49.3321Z" fill="#4C4C4C"/>
<path d="M85.9045 47.067C86.3708 47.32 86.7174 47.7478 86.8682 48.2563C87.019 48.7649 86.9615 49.3125 86.7086 49.7787C86.4556 50.2449 86.0278 50.5916 85.5192 50.7424C85.0107 50.8932 84.4631 50.8357 83.9968 50.5828C83.8997 50.53 83.783 50.474 83.6625 50.4228C82.5215 49.9444 80.913 49.706 79.3537 49.5812C77.777 49.4588 76.1634 49.1542 74.5046 48.642C74.32 48.5855 74.124 48.5272 73.9606 48.4661C73.75 48.4003 73.5456 48.2978 73.3897 48.1408C73.2338 47.9839 73.1393 47.7872 73.1262 47.5795C73.113 47.3719 73.1819 47.1648 73.3168 46.9895C73.4516 46.8141 73.6415 46.6867 73.8421 46.5948C74.0319 46.5125 74.2213 46.4366 74.4147 46.3651C76.1213 45.7273 77.8865 45.4556 79.6684 45.5936C81.4561 45.7546 83.2424 45.9381 85.2305 46.7429C85.4488 46.8358 85.6814 46.9458 85.9045 47.067Z" fill="#4C4C4C"/>
<path d="M256.116 104.357C255.589 104.301 255.061 104.457 254.648 104.791C254.236 105.124 253.973 105.608 253.917 106.135C253.861 106.663 254.017 107.191 254.351 107.603C254.685 108.016 255.168 108.279 255.696 108.335C255.806 108.346 255.934 108.366 256.062 108.392C257.273 108.645 258.734 109.36 260.089 110.141C261.458 110.933 262.96 111.597 264.617 112.115C264.801 112.173 264.995 112.236 265.165 112.278C265.375 112.343 265.602 112.375 265.819 112.334C266.037 112.293 266.226 112.184 266.354 112.02C266.483 111.857 266.544 111.647 266.532 111.426C266.52 111.205 266.436 110.993 266.323 110.803C266.213 110.628 266.1 110.458 265.981 110.29C264.936 108.797 263.636 107.573 262.089 106.677C260.525 105.796 258.95 104.935 256.855 104.472C256.623 104.425 256.369 104.383 256.116 104.357Z" fill="#4C4C4C"/>
<path d="M98.4871 168.751C57.422 147.187 13.0778 146.28 13.0778 146.28" stroke="#D6D6D6" stroke-linecap="round"/>
<path d="M95.6845 173.191C50.6173 162.224 7.37552 172.092 7.37552 172.092" stroke="#D6D6D6" stroke-linecap="round"/>
<path d="M96.7992 179.199C50.499 176.437 9.70762 193.853 9.70762 193.853" stroke="#D6D6D6" stroke-linecap="round"/>
<path d="M172.943 190.961C218.976 196.641 255.933 221.165 255.933 221.165" stroke="#D6D6D6" stroke-linecap="round"/>
<path d="M172.716 196.207C216 212.875 245.911 245.625 245.911 245.625" stroke="#D6D6D6" stroke-linecap="round"/>
<path d="M168.377 200.508C207.998 224.622 231.595 262.178 231.595 262.178" stroke="#D6D6D6" stroke-linecap="round"/>
<path d="M117.383 144.65C103.319 143.003 123.906 134.596 88.4692 126.528C85.5763 113.403 102.405 92.8413 115.145 95.7289C136.771 106.627 133.809 138.287 117.383 144.65Z" fill="white"/>
<path d="M142.217 113.455C142.335 113.234 142.522 113.05 142.756 112.95C142.99 112.85 143.25 112.842 143.483 112.93C143.715 113.017 143.906 113.194 144.016 113.423C144.127 113.652 144.146 113.914 144.089 114.158C143.907 114.818 143.701 115.368 143.445 115.953C141.81 120.063 137.136 123.84 132.036 123.315C131.51 123.275 131.053 123.217 130.431 122.996C129.847 122.788 129.013 122.302 128.545 121.431C128.067 120.541 128.101 119.72 128.191 119.113C128.402 117.935 128.819 117.2 129.2 116.481C129.589 115.776 129.993 115.15 130.353 114.565C130.536 114.269 130.702 113.99 130.826 113.757C130.89 113.637 130.936 113.538 130.963 113.48C130.993 113.437 130.965 113.406 130.993 113.691C131.014 113.838 131.078 114.077 131.265 114.315C131.455 114.557 131.672 114.67 131.804 114.719C132.092 114.808 132.054 114.749 132.005 114.751C131.96 114.742 131.824 114.748 131.707 114.761C131.592 114.772 131.45 114.793 131.284 114.826C130.718 114.93 130.026 115.125 129.368 115.325C128.002 115.747 126.72 116.188 125.315 116.687C124.803 116.864 124.26 117.057 123.686 117.266C123.447 117.351 123.182 117.357 122.942 117.267C122.702 117.177 122.506 117.001 122.398 116.774C122.289 116.547 122.274 116.285 122.355 116.041C122.435 115.798 122.606 115.595 122.821 115.462C123.351 115.142 123.852 114.842 124.328 114.561C125.646 113.799 126.855 113.123 128.259 112.463C128.94 112.145 129.672 111.829 130.43 111.583C130.655 111.513 130.87 111.452 131.078 111.403C131.284 111.353 131.593 111.298 131.852 111.279C131.978 111.267 132.203 111.262 132.392 111.279C132.491 111.287 132.592 111.3 132.697 111.32C132.816 111.342 132.982 111.386 133.132 111.445C133.287 111.505 133.446 111.586 133.6 111.691C133.766 111.803 133.955 111.974 134.097 112.159C134.395 112.545 134.512 112.945 134.555 113.278C134.625 114.497 134.324 114.833 134.173 115.295C133.994 115.716 133.815 116.069 133.633 116.418C133.279 117.095 132.936 117.707 132.651 118.289C132.368 118.854 132.142 119.452 132.122 119.701C132.103 119.829 132.164 119.744 132.042 119.504C131.914 119.266 131.733 119.21 131.816 119.243C131.887 119.27 132.067 119.314 132.33 119.336C135.747 119.71 139 117.891 141.343 114.745C141.661 114.325 141.98 113.848 142.217 113.455Z" fill="#4C4C4C"/>
<path d="M165.112 158.512C177.415 165.522 165.819 146.548 199.141 161.057C209.251 152.202 207.887 125.667 195.915 120.44C172.038 116.397 155.655 143.651 165.112 158.512Z" fill="white"/>
<path d="M163.603 118.668C163.639 118.42 163.598 118.161 163.469 117.942C163.339 117.723 163.135 117.562 162.896 117.495C162.656 117.427 162.398 117.457 162.173 117.576C161.948 117.695 161.778 117.894 161.679 118.125C161.434 118.764 161.274 119.329 161.134 119.952C160.014 124.231 161.539 130.043 165.958 132.645C166.405 132.923 166.808 133.148 167.44 133.338C168.033 133.518 168.992 133.62 169.886 133.197C170.799 132.763 171.258 132.081 171.545 131.539C172.074 130.466 172.174 129.627 172.294 128.822C172.398 128.024 172.443 127.279 172.5 126.595C172.529 126.248 172.56 125.925 172.598 125.664C172.618 125.529 172.639 125.423 172.652 125.36C172.653 125.307 172.695 125.299 172.503 125.512C172.399 125.618 172.206 125.772 171.914 125.854C171.617 125.935 171.376 125.898 171.24 125.859C170.955 125.76 171.021 125.735 171.059 125.766C171.101 125.786 171.207 125.871 171.293 125.95C171.38 126.027 171.482 126.128 171.596 126.253C171.99 126.673 172.432 127.24 172.843 127.791C173.693 128.941 174.464 130.056 175.3 131.29C175.607 131.737 175.93 132.214 176.269 132.723C176.411 132.932 176.62 133.094 176.867 133.164C177.114 133.235 177.375 133.209 177.598 133.09C177.82 132.972 177.987 132.769 178.067 132.525C178.146 132.281 178.129 132.017 178.034 131.782C177.798 131.211 177.572 130.672 177.355 130.163C176.745 128.769 176.172 127.507 175.433 126.144C175.073 125.483 174.67 124.795 174.206 124.148C174.066 123.957 173.929 123.782 173.791 123.619C173.654 123.456 173.438 123.229 173.241 123.06C173.146 122.976 172.968 122.838 172.806 122.74C172.722 122.688 172.633 122.638 172.536 122.592C172.427 122.54 172.268 122.476 172.111 122.435C171.951 122.392 171.776 122.362 171.589 122.356C171.389 122.348 171.135 122.373 170.912 122.438C170.443 122.572 170.111 122.826 169.879 123.068C169.1 124.008 169.143 124.457 168.991 124.919C168.885 125.363 168.821 125.754 168.76 126.143C168.644 126.898 168.557 127.594 168.442 128.232C168.334 128.855 168.162 129.471 168.031 129.683C167.97 129.797 167.971 129.693 168.212 129.571C168.456 129.456 168.635 129.517 168.548 129.495C168.475 129.475 168.305 129.404 168.08 129.265C165.106 127.541 163.565 124.148 163.542 120.226C163.535 119.699 163.561 119.125 163.603 118.668Z" fill="#4C4C4C"/>
<path d="M116.814 136.657C116.688 137.173 116.777 137.708 117.075 138.147C117.373 138.585 117.856 138.892 118.403 138.997C118.95 139.101 119.512 138.994 119.951 138.696C120.39 138.398 120.669 137.934 120.743 137.408C120.864 136.352 120.736 135.833 120.584 135.134C120.138 133.349 119.125 131.911 117.976 130.796C111.19 125.239 103.405 123.969 95.8219 122.288C95.3365 122.197 94.8098 122.1 94.3209 122.02C94.1961 122 94.0656 122.032 93.9589 122.105C93.8522 122.179 93.778 122.287 93.7519 122.411C93.7257 122.535 93.7496 122.664 93.8175 122.774C93.8854 122.884 93.9918 122.966 94.114 122.999C94.5713 123.123 95.0869 123.269 95.5526 123.406C102.742 125.666 110.7 128.256 115.477 133.164C116.212 134.032 116.697 135.008 116.815 135.92C116.837 136.086 116.847 136.25 116.844 136.399C116.842 136.474 116.837 136.546 116.829 136.608C116.826 136.637 116.821 136.666 116.816 136.688C116.814 136.695 116.797 136.774 116.814 136.657Z" fill="#4C4C4C"/>
<path d="M170.306 152.415C170.101 152.905 169.713 153.283 169.212 153.46C168.712 153.637 168.141 153.597 167.639 153.357C167.136 153.117 166.747 152.698 166.571 152.198C166.393 151.697 166.444 151.158 166.696 150.691C167.224 149.768 167.635 149.426 168.172 148.953C169.59 147.78 171.257 147.223 172.844 147.005C181.603 146.553 188.626 150.145 195.729 153.287C196.174 153.502 196.656 153.735 197.097 153.961C197.209 154.019 197.295 154.122 197.338 154.244C197.38 154.366 197.376 154.498 197.324 154.613C197.271 154.728 197.175 154.818 197.055 154.866C196.935 154.915 196.801 154.918 196.684 154.871C196.242 154.7 195.74 154.512 195.283 154.347C188.154 151.905 180.21 149.274 173.453 150.394C172.346 150.658 171.377 151.156 170.741 151.821C170.625 151.941 170.52 152.067 170.435 152.189C170.391 152.251 170.353 152.312 170.322 152.366C170.308 152.392 170.294 152.418 170.285 152.439C170.283 152.446 170.25 152.519 170.306 152.415Z" fill="#4C4C4C"/>
</svg>
