<svg width="305" height="268" viewBox="0 0 305 268" fill="none" xmlns="http://www.w3.org/2000/svg">
<path d="M270.504 172.366C255.457 221.573 177.842 234.462 128.635 219.415C79.4272 204.368 15.9538 152.029 31.0007 102.822C46.0475 53.6144 133.917 26.1728 183.124 41.2197C232.331 56.2665 285.551 123.158 270.504 172.366Z" fill="white"/>
<path d="M251.547 149.259C236.5 198.467 185.696 199.373 135.906 164.067C74.1268 171.275 48.3023 129.585 63.3492 80.3782C78.396 31.1709 147.498 30.3267 180.043 40.2782C212.587 50.2298 272.558 80.5483 251.547 149.259Z" fill="#FFC87D"/>
<path d="M116.404 191.857C116.82 192.045 117.282 192.218 117.725 192.366C117.75 192.374 117.776 192.383 117.802 192.391C117.823 192.399 117.846 192.405 117.868 192.413C120.183 193.273 122.717 193.902 125.349 193.425C127.996 193.001 130.384 190.925 131.424 188.439L129.514 187.991C129.503 188.178 129.497 188.363 129.497 188.545C129.275 192.935 133.013 196.698 136.836 197.451C137.334 197.571 137.836 197.663 138.341 197.702C137.873 197.514 137.427 197.288 136.993 197.047C133.6 195.216 131.367 192.061 131.497 188.551C131.497 188.4 131.501 188.246 131.507 188.089L129.596 187.641C128.164 192.077 122.678 193.888 117.868 192.413C117.845 192.406 117.823 192.398 117.802 192.391C117.776 192.383 117.75 192.374 117.725 192.366C117.282 192.218 116.82 192.045 116.404 191.857Z" fill="#4C4C4C"/>
<path d="M133.004 178L130.504 188.5" stroke="#4C4C4C" stroke-width="2"/>
<path d="M137.816 150.118L146.033 151.867L146.529 170.27L136.045 171.156L126.25 165.483L137.816 150.118Z" fill="#EDB66B"/>
<path d="M126.731 165.183C124.936 162.273 130.043 167.835 136.425 169.648C142.791 171.457 149.324 168.864 146.536 170.371C140.188 173.803 135.384 181.89 132.41 180.503C129.436 179.117 130.315 170.997 126.731 165.183Z" fill="#FF7D9E"/>
<path d="M278.46 93.7801C267.966 93.7801 244.906 88.6172 244.906 88.6172L257.529 103.585L267.966 130.895C267.966 130.895 303.152 93.7799 278.46 93.7801Z" fill="white"/>
<path d="M242.003 82C242.003 82 259.003 91.4999 283.503 94C263.503 107 244.503 102.5 244.503 102.5L242.003 82Z" fill="#FFC87D"/>
<path d="M262.214 114.869C261.686 114.814 261.158 114.97 260.746 115.303C260.333 115.637 260.07 116.121 260.015 116.648C259.959 117.176 260.115 117.704 260.448 118.116C260.782 118.529 261.266 118.792 261.793 118.847C262.189 118.888 262.546 118.885 262.889 118.866C265.743 118.601 267.885 117.738 270.146 116.92C272.371 116.073 274.422 114.871 276.295 113.362C276.504 113.193 276.719 113.017 276.914 112.843C277.083 112.694 277.221 112.504 277.285 112.285C277.349 112.066 277.334 111.838 277.238 111.642C277.143 111.447 276.973 111.294 276.761 111.209C276.549 111.125 276.314 111.117 276.093 111.158C275.855 111.194 275.582 111.249 275.327 111.299C273.019 111.745 270.822 112.383 268.727 113.18C266.668 113.952 264.403 114.733 262.656 114.873C262.472 114.884 262.312 114.88 262.214 114.869Z" fill="#4C4C4C"/>
<path d="M68.8637 35.2777C77.1483 41.719 98.5228 51.7976 98.5228 51.7976L79.3697 55.8652L54.3675 71.0194C54.3675 71.0194 49.3703 20.1216 68.8637 35.2777Z" fill="white"/>
<path d="M104.875 48.355C104.875 48.355 85.6231 45.4202 64.7467 32.3558C72.5566 54.8948 90.3185 63.0044 90.3185 63.0044L104.875 48.355Z" fill="#FFC87D"/>
<path d="M68.7451 61.8993C69.1958 62.179 69.5169 62.6263 69.6377 63.1428C69.7586 63.6593 69.6693 64.2027 69.3895 64.6533C69.1098 65.104 68.6624 65.425 68.146 65.5459C67.6295 65.6667 67.0861 65.5775 66.6355 65.2977C66.298 65.0874 66.0181 64.8657 65.7593 64.6399C63.6682 62.6783 62.5069 60.683 61.2243 58.6493C59.9872 56.6147 59.1063 54.4066 58.5542 52.0659C58.4926 51.8043 58.4312 51.5335 58.3833 51.2763C58.3421 51.0551 58.349 50.8202 58.4332 50.6082C58.5172 50.3962 58.6691 50.2257 58.8647 50.1297C59.0602 50.0337 59.288 50.0177 59.5071 50.0808C59.7264 50.1438 59.9165 50.282 60.0663 50.4498C60.2319 50.6252 60.4133 50.8355 60.5847 51.0316C62.133 52.8002 63.4753 54.6524 64.6399 56.5675C65.7921 58.4412 67.1 60.4476 68.3941 61.6302C68.5328 61.7521 68.6609 61.8475 68.7451 61.8993Z" fill="#4C4C4C"/>
<path d="M100.263 162.792C100.498 162.846 100.748 162.816 100.961 162.698C101.175 162.58 101.333 162.386 101.402 162.155C101.471 161.925 101.447 161.675 101.334 161.459C101.221 161.243 101.029 161.08 100.803 160.996C99.3769 160.446 97.8577 159.806 96.4113 159.166C84.285 153.462 67.5838 145.234 69.3459 132.872C69.4354 132.443 69.553 132.005 69.702 131.557L70.6023 128.851L67.8131 128.311C62.3549 127.543 60.3685 120.443 60.0664 113.929C59.7226 107.261 60.4938 100.336 61.6142 93.5455C61.8768 91.9867 62.1812 90.3523 62.4992 88.8585C62.5518 88.623 62.5201 88.3732 62.4007 88.1608C62.2814 87.9484 62.0858 87.7915 61.8548 87.7238C61.6239 87.6561 61.3745 87.6826 61.1594 87.797C60.9442 87.9113 60.7826 88.1045 60.6999 88.3311C60.1598 89.8443 59.6628 91.4372 59.2081 92.9927C57.269 99.7557 55.8232 106.759 55.7495 114.036C55.7534 117.676 56.0669 121.442 57.5491 125.152C58.9115 128.857 62.52 132.519 66.8536 133.215L64.9646 129.969C64.7529 130.597 64.582 131.225 64.4515 131.849C62.5302 140.977 69.4887 148.073 75.4179 152.138C81.6691 156.425 88.5544 159.278 95.5462 161.478C97.0999 161.958 98.6901 162.414 100.263 162.792Z" fill="#4C4C4C"/>
<path d="M70.8558 118.843C70.9847 119.043 71.1797 119.199 71.411 119.268C71.6423 119.337 71.8891 119.316 72.0999 119.206C72.3107 119.097 72.4708 118.908 72.5477 118.679C72.6247 118.45 72.6103 118.201 72.5208 117.981C72.2817 117.179 72.1403 116.036 72.097 114.99C71.9498 107.547 74.2952 100.131 76.798 92.9358L77.7135 90.3666L74.9572 89.7729C73.9629 89.5582 73.1737 89.2487 72.7393 88.9157C72.5402 88.763 72.4611 88.6447 72.4263 88.5645C72.3926 88.4857 72.3592 88.3643 72.374 88.1218C74.5954 81.2941 84.1284 73.8835 91.2979 67.4472C92.1335 66.729 93.0362 65.9686 93.8426 65.293C94.0269 65.1417 94.1585 64.93 94.2003 64.6921C94.2422 64.4543 94.192 64.2117 94.0591 64.0151C93.9261 63.8184 93.7197 63.6814 93.4834 63.6317C93.2471 63.5819 93.0016 63.6251 92.7925 63.7397C91.8342 64.2667 90.8149 64.8674 89.8535 65.4451C81.4308 71.3024 71.7437 75.1785 67.3845 87.7971C67.1478 89.5934 68.3041 91.9881 69.8095 92.927C71.3214 93.9703 72.6139 94.2748 74.0221 94.5514L72.1813 91.3885C69.8573 99.0073 68.1186 107.135 69.6496 115.314C69.9198 116.515 70.1855 117.578 70.8558 118.843Z" fill="#4C4C4C"/>
<path d="M225.57 160.24C225.354 160.342 225.106 160.37 224.873 160.306C224.641 160.242 224.443 160.093 224.322 159.889C224.201 159.684 224.166 159.439 224.222 159.204C224.278 158.969 224.423 158.766 224.616 158.626C225.244 158.074 225.97 157.18 226.562 156.316C230.636 150.086 232.584 142.555 234.28 135.129L234.867 132.465L237.519 133.425C238.475 133.77 239.308 133.927 239.853 133.875C240.103 133.851 240.233 133.793 240.305 133.743C240.375 133.694 240.468 133.609 240.584 133.396C242.324 126.43 238.176 115.09 235.515 105.83C235.188 104.778 234.826 103.655 234.501 102.654C234.425 102.428 234.426 102.179 234.517 101.955C234.607 101.731 234.778 101.552 234.995 101.456C235.213 101.36 235.46 101.353 235.687 101.437C235.914 101.52 236.099 101.687 236.215 101.895C236.748 102.85 237.293 103.9 237.801 104.9C241.832 114.334 247.986 122.759 244.985 135.768C244.233 137.416 241.982 138.832 240.208 138.829C238.373 138.912 237.116 138.484 235.775 137.971L239.014 136.267C236.941 143.958 234.102 151.77 228.465 157.889C227.598 158.764 226.809 159.524 225.57 160.24Z" fill="#4C4C4C"/>
<path d="M254.812 139.677C254.847 139.437 254.796 139.19 254.661 138.987C254.525 138.784 254.317 138.643 254.081 138.593C253.845 138.543 253.597 138.59 253.392 138.721C253.186 138.852 253.04 139.058 252.976 139.292C252.515 140.926 251.963 142.703 251.412 144.371C249.092 151.333 246.378 158.23 242.79 164.424C239.32 170.422 234.084 176.636 228.375 175.494L226.304 175.14L225.609 177.145C225.244 178.194 224.772 179.137 224.179 180.007C215.143 190.771 195.766 187.323 180.778 184.806C179.04 184.464 177.268 184.086 175.598 183.678C175.363 183.619 175.112 183.644 174.896 183.759C174.681 183.873 174.519 184.066 174.446 184.296C174.372 184.526 174.393 184.777 174.503 184.994C174.613 185.213 174.803 185.379 175.029 185.465C176.718 186.097 178.444 186.666 180.175 187.2C195.195 190.901 214.436 197.691 228.31 182.825C229.166 181.569 229.834 180.209 230.324 178.758L227.558 180.41C237.688 181.692 243.158 172.788 246.53 166.467C250 159.596 252.178 152.327 253.794 145.02C254.174 143.264 254.537 141.432 254.812 139.677Z" fill="#4C4C4C"/>
<path d="M187.591 87.2524C187.748 87.4351 187.968 87.5586 188.21 87.5895C188.451 87.6203 188.694 87.5569 188.886 87.4119C189.078 87.2669 189.206 87.0508 189.242 86.81C189.279 86.5691 189.22 86.3242 189.087 86.1226C188.41 85.146 187.705 84.2973 186.941 83.4459C180.628 76.3584 170.795 71.6455 160.835 72.7171L162.318 73.1786C161.803 72.7407 161.283 72.3358 160.737 71.9458C151.727 65.6303 140.341 66.1519 130.792 68.8545C129.709 69.1713 128.648 69.5138 127.583 69.9319C127.359 70.0236 127.173 70.1927 127.067 70.4123C126.961 70.6317 126.945 70.882 127.022 71.1101C127.098 71.3382 127.263 71.5274 127.48 71.6382C127.697 71.749 127.948 71.7708 128.181 71.7088C129.159 71.4675 130.25 71.2531 131.303 71.0751C140.759 69.5422 150.99 69.9204 158.413 75.2011C158.871 75.5283 159.307 75.8659 159.742 76.2297L160.394 76.7762L161.226 76.6912C169.848 75.717 178.598 79.1333 185.337 85.0647C186.13 85.7621 186.926 86.5202 187.591 87.2524Z" fill="#4C4C4C"/>
<path d="M159.53 74.2302C159.419 74.7489 159.52 75.285 159.82 75.7222C160.121 76.1593 160.596 76.4616 161.133 76.5611C161.67 76.6605 162.222 76.5485 162.658 76.2479C163.096 75.9475 163.382 75.4832 163.464 74.9588C163.546 74.4349 163.646 73.8629 163.748 73.3062C164.683 68.2967 165.879 63.2905 167.574 58.5525C167.692 58.227 167.816 57.8958 167.94 57.5749C169.567 53.3901 172.576 49.5798 176.127 46.4547C176.552 46.0846 176.999 45.7152 177.426 45.3934C177.54 45.31 177.618 45.1808 177.645 45.038C177.671 44.8951 177.644 44.7502 177.567 44.6316C177.49 44.5129 177.369 44.4292 177.227 44.395C177.086 44.361 176.936 44.3793 176.814 44.4497C176.293 44.7587 175.81 45.0769 175.321 45.4121C171.301 48.2206 167.572 51.7373 165.27 56.4072C165.108 56.7396 164.948 57.0824 164.796 57.4187C162.62 62.3116 161.182 67.3787 159.93 72.4978C159.792 73.0748 159.66 73.6355 159.53 74.2302Z" fill="#4C4C4C"/>
<path d="M121.716 49.3316C121.482 49.3917 121.274 49.5338 121.139 49.7369C121.004 49.9399 120.953 50.1857 120.998 50.4223C121.043 50.6589 121.181 50.869 121.381 51.0084C121.581 51.1478 121.826 51.2036 122.066 51.1737C123.613 51.0094 125.262 50.9335 126.879 50.9062C139.711 50.7551 152.88 53.6527 162.216 61.7204L162.935 62.3399L163.916 62.3098C165.545 62.2604 167.177 62.2867 168.811 62.38C183.025 63.2852 196.956 68.6436 209.873 75.5515C211.305 76.3322 212.753 77.1536 214.088 77.9788C214.291 78.1083 214.537 78.1632 214.778 78.1227C215.018 78.0823 215.232 77.9513 215.374 77.7567C215.516 77.5621 215.575 77.3183 215.54 77.0771C215.506 76.8358 215.378 76.6183 215.193 76.464C213.892 75.4071 212.549 74.42 211.176 73.4546C198.866 64.9544 184.617 58.3972 169.096 57.3882C167.315 57.2864 165.525 57.2689 163.731 57.3469L165.432 57.9362C154.511 48.8017 139.83 46.7839 126.698 48.4441C125.02 48.6653 123.384 48.9349 121.716 49.3316Z" fill="#4C4C4C"/>
<path d="M98.4906 168.751C57.4254 147.187 13.0812 146.28 13.0812 146.28" stroke="#D6D6D6" stroke-linecap="round"/>
<path d="M95.6879 173.191C50.6207 162.224 7.37894 172.092 7.37894 172.092" stroke="#D6D6D6" stroke-linecap="round"/>
<path d="M96.8026 179.199C50.5024 176.437 9.71104 193.853 9.71104 193.853" stroke="#D6D6D6" stroke-linecap="round"/>
<path d="M172.946 190.961C218.98 196.641 255.937 221.165 255.937 221.165" stroke="#D6D6D6" stroke-linecap="round"/>
<path d="M172.719 196.207C216.003 212.875 245.914 245.625 245.914 245.625" stroke="#D6D6D6" stroke-linecap="round"/>
<path d="M168.38 200.508C208.002 224.622 231.598 262.177 231.598 262.177" stroke="#D6D6D6" stroke-linecap="round"/>
<path d="M117.387 144.65C103.323 143.003 123.91 134.596 88.4726 126.528C85.5798 113.403 102.408 92.8413 115.148 95.7289C136.774 106.627 133.812 138.287 117.387 144.65Z" fill="white"/>
<path d="M142.22 113.455C142.338 113.234 142.525 113.05 142.759 112.95C142.994 112.85 143.253 112.842 143.486 112.93C143.719 113.017 143.909 113.194 144.02 113.423C144.13 113.652 144.15 113.914 144.093 114.158C143.91 114.818 143.705 115.368 143.449 115.953C141.814 120.063 137.14 123.84 132.039 123.315C131.514 123.275 131.056 123.217 130.435 122.996C129.851 122.788 129.017 122.302 128.548 121.431C128.07 120.541 128.105 119.72 128.195 119.113C128.405 117.935 128.822 117.2 129.203 116.481C129.592 115.776 129.997 115.15 130.357 114.565C130.539 114.269 130.706 113.99 130.83 113.757C130.893 113.637 130.94 113.538 130.966 113.48C130.996 113.437 130.968 113.406 130.996 113.691C131.017 113.838 131.081 114.077 131.268 114.315C131.458 114.557 131.675 114.67 131.808 114.719C132.096 114.808 132.057 114.749 132.008 114.751C131.963 114.742 131.828 114.748 131.711 114.761C131.595 114.772 131.453 114.793 131.288 114.826C130.722 114.93 130.029 115.125 129.371 115.325C128.005 115.747 126.724 116.188 125.319 116.687C124.806 116.864 124.264 117.057 123.689 117.266C123.451 117.351 123.186 117.357 122.945 117.267C122.705 117.177 122.51 117.001 122.401 116.774C122.292 116.547 122.277 116.285 122.358 116.041C122.439 115.798 122.609 115.595 122.825 115.462C123.354 115.142 123.856 114.842 124.331 114.561C125.649 113.799 126.859 113.123 128.262 112.463C128.944 112.145 129.676 111.829 130.433 111.583C130.659 111.513 130.873 111.452 131.081 111.403C131.288 111.353 131.597 111.298 131.856 111.279C131.981 111.267 132.207 111.262 132.395 111.279C132.494 111.287 132.596 111.3 132.701 111.32C132.819 111.342 132.985 111.386 133.136 111.445C133.29 111.505 133.449 111.586 133.604 111.691C133.769 111.803 133.959 111.974 134.1 112.159C134.398 112.545 134.515 112.945 134.559 113.278C134.628 114.497 134.327 114.833 134.176 115.295C133.998 115.716 133.818 116.069 133.637 116.418C133.283 117.095 132.94 117.707 132.654 118.289C132.372 118.854 132.145 119.452 132.125 119.701C132.107 119.829 132.167 119.744 132.045 119.504C131.917 119.266 131.737 119.21 131.82 119.243C131.891 119.27 132.07 119.314 132.334 119.336C135.751 119.71 139.003 117.891 141.346 114.745C141.665 114.325 141.984 113.848 142.22 113.455Z" fill="#4C4C4C"/>
<path d="M165.115 158.512C177.419 165.522 165.822 146.548 199.144 161.057C209.255 152.202 207.891 125.667 195.918 120.44C172.042 116.397 155.659 143.651 165.115 158.512Z" fill="white"/>
<path d="M163.607 118.668C163.643 118.42 163.602 118.161 163.472 117.942C163.343 117.723 163.138 117.562 162.899 117.495C162.66 117.427 162.402 117.457 162.177 117.576C161.952 117.695 161.781 117.894 161.682 118.125C161.438 118.764 161.277 119.329 161.137 119.952C160.017 124.231 161.543 130.043 165.961 132.645C166.409 132.923 166.811 133.148 167.443 133.338C168.036 133.518 168.996 133.62 169.89 133.197C170.802 132.763 171.261 132.081 171.549 131.539C172.077 130.466 172.177 129.627 172.297 128.822C172.401 128.024 172.447 127.279 172.503 126.595C172.532 126.248 172.563 125.925 172.602 125.664C172.622 125.529 172.642 125.423 172.656 125.36C172.657 125.307 172.698 125.299 172.506 125.512C172.402 125.618 172.209 125.772 171.917 125.854C171.621 125.935 171.379 125.898 171.244 125.859C170.959 125.76 171.025 125.735 171.063 125.766C171.105 125.786 171.21 125.871 171.297 125.95C171.383 126.027 171.485 126.128 171.599 126.253C171.993 126.673 172.435 127.24 172.847 127.791C173.697 128.941 174.467 130.056 175.303 131.29C175.61 131.737 175.933 132.214 176.272 132.723C176.414 132.932 176.624 133.094 176.871 133.164C177.117 133.235 177.379 133.209 177.601 133.09C177.823 132.972 177.991 132.769 178.07 132.525C178.15 132.281 178.132 132.017 178.037 131.782C177.801 131.211 177.575 130.672 177.359 130.163C176.749 128.769 176.176 127.507 175.436 126.144C175.076 125.483 174.674 124.795 174.209 124.148C174.07 123.957 173.933 123.782 173.794 123.619C173.658 123.456 173.441 123.229 173.244 123.06C173.15 122.976 172.971 122.838 172.81 122.74C172.725 122.688 172.636 122.638 172.54 122.592C172.431 122.54 172.271 122.476 172.115 122.435C171.955 122.392 171.779 122.362 171.592 122.356C171.392 122.348 171.138 122.373 170.915 122.438C170.446 122.572 170.114 122.826 169.882 123.068C169.104 124.008 169.147 124.457 168.995 124.919C168.889 125.363 168.824 125.754 168.764 126.143C168.647 126.898 168.561 127.594 168.445 128.232C168.338 128.855 168.166 129.471 168.034 129.683C167.973 129.797 167.975 129.693 168.216 129.571C168.46 129.456 168.639 129.517 168.552 129.495C168.479 129.475 168.308 129.404 168.083 129.265C165.109 127.541 163.569 124.148 163.546 120.226C163.539 119.699 163.565 119.125 163.607 118.668Z" fill="#4C4C4C"/>
<mask id="path-30-inside-1_248_725" fill="white">
<path d="M98.3659 107.285C98.3659 107.285 111.452 108.654 117.028 112.258C129.009 120 121.512 135.501 120.51 137.001C117.232 141.908 119.11 134.187 108.51 131C95.6664 127.139 98.3659 107.285 98.3659 107.285Z"/>
</mask>
<path d="M98.3659 107.285C98.3659 107.285 111.452 108.654 117.028 112.258C129.009 120 121.512 135.501 120.51 137.001C117.232 141.908 119.11 134.187 108.51 131C95.6664 127.139 98.3659 107.285 98.3659 107.285Z" fill="#4C4C4C"/>
<path d="M98.418 106.787C98.3833 107.119 98.3486 107.45 98.3139 107.782C99.784 107.915 101.292 108.104 102.779 108.323C107.635 109.104 112.662 109.952 116.928 112.412C125.506 117.263 124.844 129.263 120.51 137C120.088 137.588 119.718 138.275 119.024 138.566C118.431 138.709 118.069 138.087 117.736 137.685C117.4 137.236 117.085 136.788 116.739 136.35C116.059 135.482 115.288 134.676 114.419 133.974C112.698 132.576 110.657 131.608 108.525 130.95C100.519 128.595 98.3492 119.225 98.5264 111.795C98.5525 110.308 98.6533 108.777 98.8614 107.352C98.5311 107.307 98.2008 107.262 97.8705 107.217C97.7242 108.742 97.6955 110.276 97.7338 111.8C97.8804 119.364 100.381 128.817 108.495 131.05C110.628 131.672 112.674 132.612 114.403 133.994C115.275 134.688 116.051 135.489 116.734 136.354C117.081 136.79 117.398 137.238 117.735 137.686C118.068 138.088 118.431 138.709 119.024 138.566C119.718 138.275 120.088 137.589 120.511 137.001C124.83 129.278 125.755 117.309 117.127 112.104C112.801 109.47 107.787 108.482 102.915 107.509C101.42 107.233 99.9203 106.986 98.418 106.787ZM98.3139 107.782L98.418 106.787L97.9252 106.726L97.8705 107.217L98.8614 107.352L98.3139 107.782Z" fill="black" mask="url(#path-30-inside-1_248_725)"/>
<circle cx="113.51" cy="122.5" r="7.5" fill="#E69901"/>
<ellipse cx="109.51" cy="118.5" rx="3.5" ry="2.5" fill="#FFC75A"/>
<circle cx="114.01" cy="123" r="3" fill="#4C4C4C"/>
<path d="M107.01 114C107.01 114 121.509 111.241 121.51 127.5" stroke="#4C4C4C" stroke-width="3"/>
<mask id="path-36-inside-2_248_725" fill="white">
<path d="M205.42 139.026C205.42 139.026 194.063 132.382 187.436 131.984C173.197 131.13 170.06 148.06 169.98 149.862C169.716 155.757 172.775 148.423 183.203 152.131C195.84 156.624 205.42 139.026 205.42 139.026Z"/>
</mask>
<path d="M205.42 139.026C205.42 139.026 194.063 132.382 187.436 131.984C173.197 131.13 170.06 148.06 169.98 149.862C169.716 155.757 172.775 148.423 183.203 152.131C195.84 156.624 205.42 139.026 205.42 139.026Z" fill="#4C4C4C"/>
<path d="M205.672 138.595C205.504 138.882 205.336 139.17 205.167 139.458C203.904 138.694 202.577 137.954 201.249 137.249C196.873 135.004 192.32 132.711 187.425 132.167C177.64 130.998 171.069 141.061 169.981 149.862C169.973 150.585 169.864 151.357 170.25 152.003C170.644 152.469 171.304 152.183 171.81 152.056C172.346 151.893 172.866 151.718 173.404 151.57C174.466 151.273 175.565 151.081 176.68 151.029C178.896 150.922 181.113 151.35 183.221 152.082C191.067 154.924 198.364 148.658 202.62 142.566C203.48 141.352 204.305 140.058 204.981 138.787C205.274 138.946 205.566 139.106 205.859 139.265C205.074 140.58 204.189 141.834 203.256 143.039C198.659 149.048 191.047 155.185 183.186 152.18C181.099 151.419 178.894 150.965 176.681 151.055C175.568 151.098 174.469 151.284 173.406 151.577C172.868 151.722 172.347 151.896 171.811 152.057C171.304 152.184 170.643 152.469 170.25 152.003C169.864 151.357 169.972 150.585 169.979 149.862C171.071 141.081 177.413 130.887 187.447 131.801C192.493 132.24 197.119 134.413 201.621 136.514C202.989 137.176 204.344 137.865 205.672 138.595ZM205.167 139.458L205.672 138.595L206.106 138.837L205.859 139.265L204.981 138.787L205.167 139.458Z" fill="black" mask="url(#path-36-inside-2_248_725)"/>
<circle cx="7.5" cy="7.5" r="7.5" transform="matrix(-0.805867 -0.592097 -0.592097 0.805867 194.691 140.718)" fill="#E69901"/>
<ellipse cx="3.5" cy="2.5" rx="3.5" ry="2.5" transform="matrix(-0.805867 -0.592097 -0.592097 0.805867 194.099 141.524)" fill="#FFC75A"/>
<circle cx="3" cy="3" r="3" transform="matrix(-0.805867 -0.592097 -0.592097 0.805867 187.701 141.787)" fill="#4C4C4C"/>
<path d="M194.478 139.32C194.478 139.32 184.427 128.512 174.8 141.614" stroke="#4C4C4C" stroke-width="3"/>
</svg>
